<?xml version="1.0" encoding="utf-8"?>
<!-- Generator: Adobe Illustrator 19.0.0, SVG Export Plug-In . SVG Version: 6.00 Build 0)  -->
<!DOCTYPE svg PUBLIC "-//W3C//DTD SVG 1.1//EN" "http://www.w3.org/Graphics/SVG/1.1/DTD/svg11.dtd" [
	<!ENTITY ns_extend "http://ns.adobe.com/Extensibility/1.0/">
	<!ENTITY ns_ai "http://ns.adobe.com/AdobeIllustrator/10.0/">
	<!ENTITY ns_graphs "http://ns.adobe.com/Graphs/1.0/">
	<!ENTITY ns_vars "http://ns.adobe.com/Variables/1.0/">
	<!ENTITY ns_imrep "http://ns.adobe.com/ImageReplacement/1.0/">
	<!ENTITY ns_sfw "http://ns.adobe.com/SaveForWeb/1.0/">
	<!ENTITY ns_custom "http://ns.adobe.com/GenericCustomNamespace/1.0/">
	<!ENTITY ns_adobe_xpath "http://ns.adobe.com/XPath/1.0/">
]>
<svg version="1.1" id="region" xmlns:x="&ns_extend;" xmlns:i="&ns_ai;" xmlns:graph="&ns_graphs;"
	 xmlns="http://www.w3.org/2000/svg" xmlns:xlink="http://www.w3.org/1999/xlink" x="0px" y="0px" viewBox="1037.3 -264.7 736 580"
	 style="enable-background:new 1037.3 -264.7 736 580;" xml:space="preserve">
<style type="text/css">
	.st0{opacity:0.15;}
	.st1{fill:#2B2B2B;}
	<!-- st2 цвет зданий -->
	.st2{fill:#F9A027;}
	<!-- st3 цвет неактивного здания -->
	.st3{fill:#949494;}
	.st4{fill:url(#SVGID_1_);}
	.st5{fill:url(#SVGID_2_);}
	.st6{fill:url(#SVGID_3_);}
	.st7{fill:url(#SVGID_4_);}
	.st8{fill:url(#SVGID_5_);}
	.st9{fill:url(#SVGID_6_);}
	.st10{fill:url(#SVGID_7_);}
	.st11{fill:url(#SVGID_8_);}
	.st12{fill:url(#SVGID_9_);}
	.st13{fill:url(#SVGID_10_);}
	.st14{fill:url(#SVGID_11_);}
	#house1:hover{stroke:#61c1f3; stroke-width:4px; cursor:pointer}
	#house2:hover{stroke:#61c1f3; stroke-width:4px; cursor:pointer}
	#house3:hover{stroke:#61c1f3; stroke-width:4px; cursor:pointer}
	#house4:hover{stroke:#61c1f3; stroke-width:4px; cursor:pointer}
	#house5:hover{stroke:#61c1f3; stroke-width:4px; cursor:pointer}
	#house6:hover{stroke:#61c1f3; stroke-width:4px; cursor:pointer}
	#house7:hover{stroke:#61c1f3; stroke-width:4px; cursor:pointer}
	#house8:hover{stroke:#61c1f3; stroke-width:4px; cursor:pointer}
	#house9:hover{stroke:#61c1f3; stroke-width:4px; cursor:pointer}
	#house10:hover{stroke:#61c1f3; stroke-width:4px; cursor:pointer}
	#house11:hover{stroke:#61c1f3; stroke-width:4px; cursor:pointer}
	#house12:hover{stroke:#61c1f3; stroke-width:4px; cursor:pointer}
</style>
<switch>
	<g i:extraneous="self">
		<g id="shadow" class="st0">
			<path class="st1" d="M1250.5-242.8h21.3c2.5,2.6,6.1,2,9.3,2.1c0,4.6,0,9.1-0.1,13.7c-3.1,0-6.3,0-9.4,0c-0.1-0.8-0.4-2.2-0.6-3
				c-2.3,0-4.7,0-7,0c0,3-0.1,6.1,0,9.1c-3.5,0-7.1,0.1-10.6,0.1c-0.1-0.8-0.2-2.5-0.2-3.3c-0.7-0.1-2.1-0.2-2.9-0.3
				C1250.3-230.5,1250.3-236.7,1250.5-242.8z"/>
			<path class="st1" d="M1284.2-242.8h23.5c0,5.4,0,10.8,0,16.1c-2.1,0-4.2,0-6.3,0c-0.1,0.8-0.4,2.3-0.5,3c-2.8,0-5.6,0-8.3,0
				c-0.1-0.7-0.4-2.2-0.5-3c-2.6,0-5.2,0-7.8,0C1284.2-232.1,1284.2-237.4,1284.2-242.8z"/>
			<path class="st1" d="M1311.4-242.8h23.9c0,5.4,0,10.7,0,16.1c-2.3,0-4.5,0-6.8,0c-0.1,0.8-0.3,2.3-0.3,3c-2.7,0-5.4,0-8.1,0.1
				c-0.1-1-0.3-2-0.4-3c-2.7,0-5.5-0.1-8.2-0.1C1311.4-232.1,1311.4-237.4,1311.4-242.8z"/>
			<path class="st1" d="M1337.7-242.8h23.7c0,5.4,0,10.7,0,16.1c-2.2,0-4.5,0-6.7,0.1c-0.1,0.7-0.4,2.2-0.6,3c-2.6,0-5.2,0-7.7,0
				c-0.1-0.8-0.4-2.2-0.6-3c-2.7,0-5.4-0.1-8.1-0.1C1337.7-232.1,1337.7-237.4,1337.7-242.8z"/>
			<path class="st1" d="M1370.5-235.3c6.9-3.4,16-0.5,23.7-1.5c0,5.6,0,11.2,0,16.8c-0.6,0-1.9,0.1-2.5,0.1c0.1,1.5,0.2,3,0.3,4.6
				c-3.8,0-7.5,0-11.3,0c0-3.1-0.1-6.3-0.1-9.4c-2.8,0-5.7,0-8.5,0c0,1.3,0,2.7,0,4c-2.6,0-5.3,0-7.9-0.1c0-4.8,0-9.7,0.1-14.5
				C1366.4-235.3,1368.5-235.3,1370.5-235.3z"/>
			<path class="st1" d="M1379.1-212.9c5.4-0.1,10.8-0.1,16.2,0c0,7.9,0,15.7,0,23.6c-5.4,0-10.8,0-16.1,0c0-2.3,0-4.6,0-7
				c-1,0-2-0.1-3-0.1c0-2.8,0-5.7,0-8.5c0.8,0,2.2,0,3,0C1379.1-207.5,1379.1-210.2,1379.1-212.9z"/>
			<path class="st1" d="M1458.7-207.6c9.5-0.1,19,0,28.5-0.1c0.1,4.9,0.1,9.8,0,14.8c-4.1,0-8.3,0-12.4,0c0,0.7,0,2.2,0,3
				c-2.9,0-5.7,0-8.6,0.1c0-0.7-0.1-2.2-0.1-3c-2.4,0-4.9-0.1-7.4-0.1C1458.7-197.9,1458.7-202.7,1458.7-207.6z"/>
			<path class="st1" d="M1489.3-207.7c9.5,0.1,19,0,28.5,0.1c0,4.9,0,9.8,0,14.6c-4.2,0-8.4,0-12.6,0.1c0,0.8,0,2.3,0,3
				c-2.9,0-5.8-0.1-8.8-0.1c0-0.7-0.1-2.2-0.1-2.9c-2.4,0-4.7,0-7.1,0C1489.2-197.8,1489.2-202.8,1489.3-207.7z"/>
			<path class="st1" d="M1520.7-207.6c9.5-0.1,19,0,28.5-0.1c0.1,4.9,0.1,9.8,0,14.8c-4.1,0-8.3,0-12.4,0c0,0.7,0,2.2,0,3
				c-2.9,0-5.7,0-8.6,0.1c0-0.7-0.1-2.2-0.1-3c-2.4,0-4.9-0.1-7.4-0.1C1520.7-197.9,1520.7-202.7,1520.7-207.6z"/>
			<path class="st1" d="M1552.3-207.7c9.5,0.1,19,0,28.5,0.1c0,4.9,0,9.8,0,14.6c-4.2,0-8.4,0-12.6,0.1c0,0.8,0,2.3,0,3
				c-2.9,0-5.8-0.1-8.8-0.1c0-0.7-0.1-2.2-0.1-2.9c-2.4,0-4.7,0-7.1,0C1552.2-197.8,1552.2-202.8,1552.3-207.7z"/>
			<path class="st1" d="M1251.4-199.3c4.9,0,9.8,0,14.6,0c0,2.5,0.1,5,0.1,7.5c0.7,0,2,0.1,2.6,0.2c0,2.7-0.1,5.3-0.1,8
				c-0.6,0-1.9,0.1-2.6,0.1c0,4.2-0.1,8.4-0.1,12.6c-4.9,0.1-9.8,0.1-14.6,0C1251.3-180.4,1251.4-189.9,1251.4-199.3z"/>
			<path class="st1" d="M1611.2-194.3c9.6,0,19.2,0,28.8,0c0,4.8,0,9.7,0.1,14.5c-2.5,0-4.9,0.1-7.4,0.1c0,0.7,0,2.2,0,3
				c-2.9,0-5.8,0-8.6,0c0-0.8,0-2.2,0-3c-4.3,0-8.6-0.1-12.9,0C1611.2-184.6,1611.2-189.5,1611.2-194.3z"/>
			<path class="st1" d="M1649.8-193.6c5.7-0.1,11.3,0,17,0c0,7.1,0,14.2,0,21.3c-0.7,0.6-1.4,1.3-2.1,2c0,2.3,0,4.7,0,7
				c-4.6,0.1-9.3,0.1-13.9,0c-0.1-3.2-0.1-6.3-0.1-9.5c0.9,0,2.7,0,3.6,0c0-3,0-5.9,0-8.9c-3.9,0-7.7,0-11.6,0c0-3.3,0-6.6-0.1-9.9
				C1645.1-192,1648.8-190.5,1649.8-193.6z"/>
			<path class="st1" d="M1251.3-169.7c4.9,0,9.8,0,14.8,0c0,2.5,0,4.9,0,7.3c0.7,0.1,2,0.2,2.6,0.2c0,2.6,0,5.2,0,7.7
				c-0.7,0.1-2,0.2-2.6,0.2c0,4.2,0,8.4,0,12.6c-4.9,0.2-9.8,0.2-14.7,0C1251.3-151,1251.4-160.3,1251.3-169.7z"/>
			<path class="st1" d="M1650.7-161.6c4.8,0,9.7,0,14.5,0c0.1,8.2,0.1,16.5,0,24.7c-4.8,0-9.7,0-14.5-0.1c0-2.4,0-4.8,0-7.2
				c-0.7-0.1-2.2-0.2-2.9-0.3c0-2.8,0-5.7,0-8.5c0.8,0,2.3-0.1,3-0.1C1650.7-155.9,1650.7-158.7,1650.7-161.6z"/>
			<path class="st1" d="M1381.2-145.8c5.3,0,10.7,0,16,0c0,9.7,0,19.4,0,29.1c-5.3,0.1-10.7,0.1-16,0c0-2.7,0-5.3,0-8
				c-0.7,0-2.2,0-3,0c0-2.7,0-5.5,0-8.2c0.7,0,2.2,0,3,0C1381.2-137.2,1381.2-141.5,1381.2-145.8z"/>
			<path class="st1" d="M1251.4-140.2c4.9,0,9.8,0,14.6,0c0,2.5,0.1,4.9,0.1,7.4c0.7,0,2,0.1,2.6,0.2c0,2.6,0,5.2,0,7.8
				c-0.7,0-2,0.1-2.6,0.2c0,4.2,0,8.3-0.1,12.5c-4.9,0-9.8,0-14.6,0C1251.3-121.6,1251.3-130.9,1251.4-140.2z"/>
			<path class="st1" d="M1650.8-133.9c4.8,0,9.7,0,14.5,0c0,8.1,0,16.2,0,24.2c-4.8,0.1-9.7,0.1-14.5,0.1c0-2.4,0-4.8-0.1-7.2
				c-0.8,0-2.2,0-3,0c0-2.9,0-5.8,0-8.8c0.7,0,2.2-0.1,3-0.1C1650.7-128.4,1650.7-131.2,1650.8-133.9z"/>
			<path class="st1" d="M1381.4-114.6c5.2-0.1,10.5-0.1,15.7-0.1c-0.1,3.8,0,7.7,1.1,11.4c-2.3,0-4.6,0-6.8,0c0,4.5,0,9-0.1,13.5
				c-3.5,0-7.1,0-10.6,0c0,1.5-0.1,3-0.1,4.5c-1.5,0-2.9,0-4.4,0.1c-0.1-0.6-0.2-1.8-0.2-2.4c-2.4,0-4.9,0-7.3,0.1
				c-0.1-5-0.1-10,0-15c3,0,6.1-0.1,9.1,0C1381.5-105.6,1381.8-110.2,1381.4-114.6z"/>
			<path class="st1" d="M1251.7-110.6c5.3,0,10.7,0,16,0c-0.6,4.5-0.2,9.1,3.7,12c3,0,6,0,9,0c0.2,5,0.2,10,0,15c-2.4,0-4.8,0-7.2,0
				c-0.1,0.6-0.3,1.8-0.4,2.4c-1.5,0-3,0-4.4,0c0-1.4-0.1-2.9-0.1-4.3c-3.6,0-7.3,0-10.9,0c0-4.4,0-8.8,0-13.2c-2.1,0-4.1,0-6.2,0
				C1251.7-102.8,1251.8-106.7,1251.7-110.6z"/>
			<path class="st1" d="M1457.2-107.7c3.8-0.1,7.7-0.1,11.5-0.1c0,3.2,0,6.3,0.1,9.5c2.8,0,5.6,0,8.4,0c0-1,0-3,0-4
				c2.6,0,5.2,0,7.8,0c0,4.8,0,9.6,0.1,14.4c-9.8,1.6-19.8,1.9-29.9,1.6c0-5.5,0-11,0-16.5c0.6-0.1,1.8-0.2,2.4-0.2
				C1457.5-104.6,1457.4-106.2,1457.2-107.7z"/>
			<path class="st1" d="M1651.8-107.9c3.7,0,7.3,0,11,0c0,1.6,0,3.2,0,4.7c0.6,0.1,1.9,0.2,2.6,0.2c0,5.5,0,11,0,16.5
				c-7.5,0-15,0-22.6,0c-0.2-0.4-0.7-1.2-0.9-1.6c-2.2,0-4.3,0-6.4,0c0-4.8,0-9.7,0.1-14.5c2.6,0,5.2,0,7.8,0c0,1,0,3,0,4
				c2.8,0,5.6,0,8.4,0C1651.7-101.5,1651.7-104.7,1651.8-107.9z"/>
			<path class="st1" d="M1611.1-104.8c3,0,6,0.1,9,0.1c0,0.7,0,2.2,0,3c4.2,0,8.4,0,12.6,0c0,4.8,0,9.6,0,14.5
				c-9.5,0.1-19.1,0.1-28.6,0c0-4.8,0-9.6,0-14.5c2.3,0,4.7,0,7,0C1611.1-102.6,1611.1-104.1,1611.1-104.8z"/>
			<path class="st1" d="M1346.3-103.7c2.8,0,5.6,0.1,8.5,0.1c0,0.7,0,2.2,0,3c3.8,0,7.6,0,11.4,0c0.1,5.3,0,10.7,0.1,16
				c-9.6,0.1-19.3,0.1-28.9,0c0-5.3,0-10.6,0-15.9c3,0,5.9-0.1,8.9-0.1C1346.3-101.4,1346.3-102.9,1346.3-103.7z"/>
			<path class="st1" d="M1495.3-104.3c2.9,0,5.8,0,8.7,0c0,0.8,0.1,2.2,0.1,3c4.1,0,8.2,0,12.3,0.1c0,4.8,0,9.7,0,14.5
				c-9.4,0-18.8,0-28.2,0c0-4.8,0-9.7,0-14.5c2.4,0,4.7,0,7.1,0C1495.2-102.1,1495.3-103.6,1495.3-104.3z"/>
			<path class="st1" d="M1526.9-104.3c2.8,0,5.7,0,8.5,0c0,0.8,0.1,2.3,0.1,3c4.2,0,8.4,0,12.6-0.1c0,4.8,0,9.7,0.1,14.5
				c-9.6,0.1-19.2,0.1-28.8,0c0-4.8,0-9.7,0.1-14.5c2.4,0,4.8,0,7.2,0C1526.7-102.1,1526.8-103.5,1526.9-104.3z"/>
			<path class="st1" d="M1558.3-104.3c2.9,0,5.8,0,8.7,0c0,0.8,0.1,2.2,0.1,3c4.1,0,8.2,0,12.3,0.1c0,4.8,0,9.7,0,14.5
				c-9.4,0-18.8,0-28.2,0c0-4.8,0-9.7,0-14.5c2.4,0,4.7,0,7.1,0C1558.2-102.1,1558.3-103.6,1558.3-104.3z"/>
			<path class="st1" d="M1290.4-101.9c2.9,0,5.8,0,8.7,0c0,0.7,0.1,2.2,0.1,3c3.7,0,7.4,0,11.1,0c0,5.1,0,10.2,0,15.2
				c-9.5,0.1-19,0-28.4,0.1c0-5.1,0-10.2,0-15.3c2.8,0,5.7,0,8.5,0C1290.3-99.7,1290.4-101.2,1290.4-101.9z"/>
			<path class="st1" d="M1167.1,4.2c2.7,0,5.5,0,8.2,0c0,0.7,0,2.2,0,3c3.5,0,6.9,0,10.4,0.1c0,4.8,0,9.6-0.1,14.4
				c-9.8,0.1-19.6,0-29.5,0.1c0-4.8,0-9.7,0-14.5c3.6,0,7.3,0,10.9,0C1167.1,6.4,1167.1,4.9,1167.1,4.2z"/>
			<path class="st1" d="M1197.1,4.2c2.7,0,5.4,0,8.1,0c0,0.8,0,2.3,0,3c2.5,0,5,0,7.5,0c0,4.8,0,9.6,0,14.5c-8.5,0.1-17,0-25.5,0
				c0-4.8,0-9.7,0-14.5c3.3,0,6.6,0,9.9-0.1C1197.1,6.4,1197.1,4.9,1197.1,4.2z"/>
			<path class="st1" d="M1224.3,4.2c2.9,0,5.8,0,8.8,0c0,0.8,0,2.2,0,3c2.7,0,5.5,0,8.2,0c0.1,4.8,0.1,9.7,0,14.5
				c-8.9,0.1-17.7,0.1-26.6,0c-0.1-4.8-0.1-9.6,0-14.5c3.2,0,6.4,0,9.6,0C1224.3,6.5,1224.3,5,1224.3,4.2z"/>
			<path class="st1" d="M1250.6,6c0.2-2.7,2.6-2.3,4.6-2.5c0,1.5,0.1,3,0.1,4.6c3.7,0,7.3,0,11,0c0,4.4,0,8.8,0,13.2
				c2.2,0,4.4,0.1,6.7,0.1c-0.7,3.8-0.9,7.7-0.9,11.6c-5.3,0-10.6,0-15.9,0c0-2.5,0-5,0-7.4c-1.3-1.5-2.5-3-3.8-4.5
				c-3,0-6.1,0-9.1,0c0-5,0-10,0-15C1245.7,6.1,1248.1,6.1,1250.6,6z"/>
			<path class="st1" d="M1386.4,4.1c3.3,0,6.6,0,9.9,0c0,0.8,0,2.3,0,3.1c3,0,6,0,9,0c0,5,0,9.9,0,14.9c-9.6-0.1-19.2,0-28.8-0.1
				c0-4.9,0-9.9-0.1-14.8c3.3,0,6.6,0,10,0C1386.3,6.4,1386.4,4.9,1386.4,4.1z"/>
			<path class="st1" d="M1415.4,4.1c3.3,0,6.6,0,9.9,0c0,0.8,0,2.3,0,3.1c2.3,0,4.7,0,7,0c0,5,0,9.9-0.1,14.9
				c-8.3-0.1-16.5,0-24.8-0.1c0-4.9,0-9.9-0.1-14.8c2.7,0,5.3,0,8,0C1415.3,6.4,1415.4,4.9,1415.4,4.1z"/>
			<path class="st1" d="M1443.1,4.1c3.2,0,6.4,0,9.6,0c0,0.8,0.1,2.4,0.1,3.2c2.3,0,4.7,0,7,0c0,4.9,0,9.9,0,14.8
				c-8.2,0.1-16.4,0-24.6,0c-0.1-5-0.1-9.9,0-14.9c2.7,0,5.3,0,8,0C1443.1,6.4,1443.1,4.8,1443.1,4.1z"/>
			<path class="st1" d="M1519.7,4.2c8.2,0,16.3,0,24.5,0c0,4.7,0,9.4,0,14.1c-2.4,0-4.7,0-7.1,0c0,0.7-0.1,2.2-0.1,3
				c-3,0-5.9,0-8.9,0c0-0.8,0-2.3,0-3c-2.8,0-5.6,0-8.4,0C1519.7,13.6,1519.7,8.9,1519.7,4.2z"/>
			<path class="st1" d="M1547.2,4.2c8.2,0,16.3,0,24.5,0c0,4.7,0,9.4,0,14.1c-2.4,0-4.8,0-7.3,0c0,0.7-0.1,2.2-0.1,3
				c-2.8,0-5.7,0-8.6,0c0-1-0.1-2-0.1-3c-2.8,0-5.7-0.1-8.5-0.1C1547.2,13.6,1547.2,8.9,1547.2,4.2z"/>
			<path class="st1" d="M1574.7,4.2c8.2,0,16.3,0,24.5,0c0,4.7,0,9.4,0,14.1c-2.4,0-4.7,0-7.1,0c0,0.7-0.1,2.2-0.1,3
				c-3,0-5.9,0-8.9,0c0-0.8,0-2.3,0-3c-2.8,0-5.6,0-8.4,0C1574.7,13.6,1574.7,8.9,1574.7,4.2z"/>
			<path class="st1" d="M1602.2,4.2c8.2,0,16.3,0,24.5,0c0,4.7,0,9.4,0,14.1c-2.4,0-4.8,0-7.3,0c0,0.7-0.1,2.2-0.1,3
				c-2.8,0-5.7,0-8.6,0c0-1-0.1-2-0.1-3c-2.8,0-5.7-0.1-8.5-0.1C1602.2,13.6,1602.2,8.9,1602.2,4.2z"/>
			<path class="st1" d="M1632.8,6.2c4.4-4.1,12.5-0.7,18.4-1.8c-1.2,7.2,2.6,17.1-1.9,22.5c-0.1,2.5,0,5,0,7.5c-4.7,0-9.4,0-14.2,0
				c0-3.1,0-6.1,0-9.2c1.3,0,2.7,0,4,0c0-3,0-5.9,0-8.9c-3.3,0-6.7,0-10,0c0-3.3,0-6.7,0-10C1630.3,6.2,1631.5,6.2,1632.8,6.2z"/>
			<path class="st1" d="M1361.2,4.7c2,0,3.9,0,5.9,0c0,0.7,0.1,2,0.2,2.7c2.3,0,4.7,0,7,0c0.1,5,0.1,9.9,0,14.9
				c-2.7,0-5.4,0-8.1-0.1c-3.6,2.6-4,6.8-3.5,10.9c-5.3,0-10.7,0-16,0c0.7-3.9-0.7-7.3-1.4-10.9c1.5,0,3-0.1,4.4-0.1
				c0-3.6,0-7.2,0-10.8c3.8,0,7.7,0,11.5,0C1361.2,9,1361.2,6.9,1361.2,4.7z"/>
			<path class="st1" d="M1469.3,4.7c1.9,0,3.8,0,5.7,0c0,1.8,0.1,3.7,0.1,5.5c3.1,0,6.1,0,9.2,0c0,3.9,0,7.9,0.1,11.8
				c2.2,0,4.4,0,6.6,0.1c-0.4,1.4-0.8,2.8-1.5,4.1c-0.2,2.3-0.2,4.6-0.3,6.8c-4.9,0-9.7,0-14.6,0c0.9-4.5-0.5-8.6-4.7-10.8
				c-2.7,0-5.3,0-8,0c-0.1-5-0.1-9.9,0-14.9c2.3,0,4.7,0,7.1,0C1469.2,6.7,1469.3,5.3,1469.3,4.7z"/>
			<path class="st1" d="M1257.8,34.7c4.8-0.1,9.7-0.1,14.5,0c0,8.7,0,17.4,0,26c-4.8,0-9.6,0-14.5,0c0-3.1-0.1-6.2,0-9.4
				c-0.7,0-2-0.1-2.6-0.2c0-2.6,0-5.3,0-7.9c0.7,0,2-0.1,2.6-0.1C1257.7,40.3,1257.7,37.5,1257.8,34.7z"/>
			<path class="st1" d="M1348.1,35.3c4.7,0,9.4,0,14.1,0c0,2.8,0,5.6,0.1,8.4c0.8,0,2.4,0,3.1,0.1c0,2.8,0,5.7,0,8.5
				c-0.8,0-2.3,0-3.1,0c0,3,0,6.1,0,9.1c-4.7,0-9.4,0-14.2,0C1348.1,52.7,1348,44,1348.1,35.3z"/>
			<path class="st1" d="M1475.1,35.3c4.6,0,9.3,0,13.9,0c0.1,8.6,0,17.3,0.1,25.9c-4.7,0-9.3,0-14,0c0-3,0-6.1,0-9.1
				c-0.8,0-2.6,0-3.4,0c0-2.8,0-5.6,0.1-8.4c1.1-0.1,2.2-0.1,3.3-0.1C1475.1,40.9,1475.1,38.1,1475.1,35.3z"/>
			<path class="st1" d="M1636.3,45.2c4.8-0.1,9.6-0.1,14.4,0c0,8.1,0,16.3-0.1,24.5c-4.8,0.1-9.5,0.1-14.3,0c0-2.4-0.1-4.9-0.1-7.3
				c-0.7,0-2.2-0.1-3-0.1c0-2.9,0-5.7,0.1-8.6c0.7,0,2.2,0,3,0C1636.4,50.8,1636.4,48,1636.3,45.2z"/>
			<path class="st1" d="M1101.7,48.2c4.8,0,9.7,0,14.5,0c0,3,0,6.1,0,9.1c0.8,0,2.2,0,3,0c0,2.8,0,5.6,0,8.4c-0.8,0-2.3,0-3,0
				c0,2.9,0,5.7,0,8.6c-4.8,0-9.7,0-14.5,0C1101.7,65.6,1101.7,56.9,1101.7,48.2z"/>
			<path class="st1" d="M1257.7,62.2c4.8,0,9.7,0,14.5,0c0,8.7,0,17.3,0,26c-4.8,0-9.7,0-14.5,0c0-3.1,0-6.3-0.1-9.4
				c-0.6,0-1.9-0.1-2.6-0.2c0-2.6,0-5.2,0-7.9c0.7,0,2-0.1,2.6-0.2C1257.7,67.8,1257.7,65,1257.7,62.2z"/>
			<path class="st1" d="M1636.4,72.7c4.8,0,9.5,0,14.3,0c0.1,8.2,0,16.3,0.1,24.5c-4.8,0-9.6,0-14.4,0c0-2.4,0-4.7,0-7.1
				c-0.7,0-2.2-0.1-3-0.1c0-2.9-0.1-5.8-0.1-8.8c0.8,0,2.2,0,3,0C1636.3,78.4,1636.4,75.5,1636.4,72.7z"/>
			<path class="st1" d="M1101.7,76c4.8,0,9.7,0,14.5,0.1c0,3.1,0,6.2,0,9.2c0.7,0,2.2,0,3,0c0,2.8,0,5.6,0,8.4c-0.8,0-2.3,0-3,0
				c0,2.8,0,5.7,0,8.5c-4.8,0-9.7,0-14.5,0C1101.7,93.5,1101.7,84.7,1101.7,76z"/>
			<path class="st1" d="M1575.1,97.1c2.8,0,5.7,0,8.6,0c0,1,0,2,0.1,3c2.8,0,5.7,0.1,8.5,0.1c0,4.7,0,9.4,0,14.1
				c-8.2,0-16.3,0-24.5,0c0-4.7,0-9.4,0-14.1c2.4,0,4.8,0,7.3,0C1575,99.3,1575.1,97.8,1575.1,97.1z"/>
			<path class="st1" d="M1363.7,101c0-1,0.1-2,0.1-3c2.9,0,5.7,0,8.6,0c0,0.7,0.1,2.2,0.1,3c3.1,0,6.2,0,9.3,0
				c0.1,4.7,0.1,9.4,0,14.1c-8.1,0-16.3,0-24.4,0c0-4.7,0-9.4,0-14.1C1359.5,101.1,1361.6,101,1363.7,101z"/>
			<path class="st1" d="M1393.4,98.1c3,0,6,0,9,0c0,0.7,0.1,2.2,0.1,3c2.1,0,4.2,0,6.3,0.1c0.1,4.7,0.1,9.4,0,14.1
				c-8.1,0-16.3,0-24.4,0c0-4.7,0-9.4,0-14.1c3,0,5.9,0,8.9,0C1393.3,100.3,1393.4,98.8,1393.4,98.1z"/>
			<path class="st1" d="M1418.4,98.1c3,0,5.9,0,8.9,0c0,0.8,0,2.3,0,3c4.1,0,8.3,0,12.4,0c0.1,4.7,0.1,9.4,0,14.1
				c-9.5,0-19,0-28.5,0c0-4.7,0-9.4,0-14.1c2.4,0,4.7,0,7.1,0C1418.3,100.3,1418.4,98.8,1418.4,98.1z"/>
			<path class="st1" d="M1450.1,98.1c2.8,0,5.7,0,8.6,0c0,1,0,2,0.1,3c4.2,0,8.3,0,12.5,0.1c0,4.7,0,9.4,0,14.1c-9.5,0-19,0-28.5,0
				c0-4.7,0-9.4,0-14.1c2.4,0,4.8,0,7.3,0C1450,100.3,1450.1,98.8,1450.1,98.1z"/>
			<path class="st1" d="M1602.4,100.1c3,0,5.9,0,8.9,0c0,0.8,0,2.3,0,3c2.8,0,5.6,0,8.4,0c0,4.7,0,9.4,0,14.1c-8.2,0-16.3,0-24.5,0
				c0-4.7,0-9.4,0-14.1c2.4,0,4.7,0,7.1,0C1602.3,102.3,1602.4,100.8,1602.4,100.1z"/>
			<path class="st1" d="M1637.1,99.7c3.7-0.1,7.4,0,11.1-0.1c0,1.4-0.1,2.8-0.1,4.2c4.9,3.2,1,11.9,2.2,17.4
				c-9.6-0.2-19.2,0.7-28.6-1.4c0-4.9,0-9.7,0-14.6c2.2,0,4.4,0,6.6,0c0,1.3,0,2.7,0,4c2.9,0,5.8,0,8.8,0
				C1637.1,106,1637.1,102.9,1637.1,99.7z"/>
			<path class="st1" d="M1102.4,104.3c5.3,0,10.5,0,15.8,0c0.1,2.5,0,5.1,0.1,7.6c1.2,1.4,2.3,2.8,3.4,4.3c3.1,0,6.2,0.2,9.4,0.2
				c0.1,4.9,0.1,9.8,0.1,14.7c-2.3,0.1-4.7,0.1-7,0.2c-1.2,1.7-3.1,2.2-5,2.5c0-1.5-0.1-3-0.1-4.6c-3.6,0-7.3,0-10.9-0.1
				c-0.1-4.5,0-9-0.1-13.5c-2.3,0-4.5,0-6.8,0v-1.1C1102.1,111.2,1102.4,107.8,1102.4,104.3z"/>
			<path class="st1" d="M1142.2,112.7c2.7,0,5.4,0,8.1,0.1c0,0.8,0.1,2.3,0.1,3c3.5,0,7.1,0,10.6-0.1c0.1,4.9,0.1,9.8,0,14.6
				c-9.2,0.1-18.5,0.1-27.7,0c0-4.9,0-9.8,0-14.6c2.9,0,5.9,0,8.8,0C1142.2,114.9,1142.2,113.4,1142.2,112.7z"/>
			<path class="st1" d="M1173.2,112.7c2.7,0,5.4,0,8.1,0.1c0,0.8,0.1,2.3,0.1,3c2.5,0,5.1-0.1,7.6-0.1c0.1,4.9,0.1,9.8,0,14.6
				c-8.6,0.1-17.2,0.1-25.7,0c0-4.9,0-9.8,0-14.6c3.3,0,6.5,0,9.8,0C1173.2,114.9,1173.2,113.4,1173.2,112.7z"/>
			<path class="st1" d="M1201.9,112.7c2.8,0,5.6-0.1,8.3-0.1c0,0.8,0.1,2.3,0.1,3c2.4,0,4.7,0,7.1,0c0,4.9,0,9.7,0,14.6
				c-8.4,0-16.8,0-25.3,0c0-4.9,0-9.7,0-14.6c3.2,0,6.3-0.1,9.5-0.1C1201.7,114.9,1201.8,113.5,1201.9,112.7z"/>
		</g>
		<g id="region">
			<g id="house10">
				<path class="st2" d="M1456.6-211h28.2c0.5,4.9,0.1,9.8,0.3,14.8c-4.2,0-8.3,0-12.5,0c0,0.8,0,2.3,0,3c-2.9,0-5.8,0-8.8,0
					c0-0.8,0-2.3,0-3c-2.4,0-4.9,0-7.3,0C1456.5-201.2,1456.4-206.1,1456.6-211z"/>
				<path class="st2" d="M1487.2-211h28.2c0.2,4.9,0.1,9.8,0.1,14.8c-4.2,0-8.3,0-12.5,0c0,0.8,0,2.3,0,3c-2.9,0-5.8,0-8.7,0
					c0-0.8,0-2.3,0-3c-2.4,0-4.8,0-7.2,0C1487.1-201.2,1486.8-206.1,1487.2-211z"/>
				<path class="st2" d="M1518.6-211h28.2c0.5,4.9,0.1,9.8,0.3,14.8c-4.2,0-8.3,0-12.5,0c0,0.8,0,2.3,0,3c-2.9,0-5.8,0-8.8,0
					c0-0.8,0-2.3,0-3c-2.4,0-4.9,0-7.3,0C1518.5-201.2,1518.4-206.1,1518.6-211z"/>
				<path class="st2" d="M1550.2-211h28.2c0.2,4.9,0.1,9.8,0.1,14.8c-4.2,0-8.3,0-12.5,0c0,0.8,0,2.3,0,3c-2.9,0-5.8,0-8.7,0
					c0-0.8,0-2.3,0-3c-2.4,0-4.8,0-7.2,0C1550.1-201.2,1549.8-206.1,1550.2-211z"/>
			</g>
			<g id="house11">
				<path class="st2" d="M1609-197.5c9.6,0,19.2,0,28.8,0c0,4.8,0,9.7,0,14.5c-2.4,0-4.8,0-7.3,0c0,0.8,0,2.3,0,3
					c-2.9,0-5.8,0-8.8,0c0-0.8,0-2.3,0-3c-4.3,0-8.5,0-12.8,0C1609-187.8,1609-192.7,1609-197.5z"/>
				<path class="st2" d="M1646.8-196.8c7.7,0.1,10.7,0.1,18.2,0.3l0,0c-0.6,8.9-0.1,16.9-0.3,23c-1.1,1.3-2,2.1-2,2.1l-0.1,4.8
					c-4.7,0-9.4,0-14,0c0-3.2,0-6.3,0-9.5c1.2,0,2.5,0,3.8,0c0-2.9,0-5.8,0-8.7c-3.9,0-7.8,0-11.8,0c0-3.3,0-6.7,0-10
					c2.1,0,4.2,0,6.3,0C1646.8-195.3,1646.8-196.3,1646.8-196.8z"/>
				<path class="st2" d="M1648.5-164.8c4.8,0,9.7,0,14.5,0c0,8.2,0,16.3,0,24.5c-4.8,0-9.7,0-14.5,0c0-2.4,0-4.8,0-7.3
					c-0.8,0-2.3,0-3,0c0-2.9,0-5.8,0-8.8c1,0,2,0,3,0C1648.5-159.1,1648.5-161.9,1648.5-164.8z"/>
				<path class="st2" d="M1648.5-137.3c4.8,0,9.7,0,14.5,0c0,8.2,0,16.3,0,24.5c-4.8,0-9.7,0-14.5,0c0-2.4,0-4.8,0-7.3
					c-0.8,0-2.3,0-3,0c0-2.9,0-5.8,0-8.8c0.8,0,2.3,0,3,0C1648.5-131.6,1648.5-134.4,1648.5-137.3z"/>
				<path class="st2" d="M1649.5-111c3.7,0,7.3,0,11,0c0,1.6,0,3.2,0,4.8c0.6,0,1.9,0,2.5,0c0,5.6,0,11.2,0,16.8
					c-7.8,0-15.5,0-23.3,0c0-0.4,0-1.1,0-1.5c-2.2,0-4.3,0-6.5,0c0-4.8,0-9.7,0-14.5c2.6,0,5.2,0,7.8,0c0,1.3,0,2.7,0,4
					c2.8,0,5.7,0,8.5,0C1649.5-104.7,1649.5-107.8,1649.5-111z"/>
				<path class="st2" d="M1608.8-108c3,0,6,0,9,0c0,0.8,0,2.3,0,3c4.3,0,8.5,0,12.8,0c0,4.8,0,9.7,0,14.5c-9.6,0-19.2,0-28.8,0
					c0-4.8,0-9.7,0-14.5c2.3,0,4.7,0,7,0C1608.8-105.7,1608.8-107.2,1608.8-108z"/>
			</g>
			<g id="house9">
				<path class="st2" d="M1379-149c5.3,0,10.7,0,16,0c0,9.8,0,19.5,0,29.3c-5.3,0-10.7,0-16,0c0-2.7,0-5.3,0-8c-0.8,0-2.3,0-3,0
					c0-2.8,0-5.7,0-8.5c0.8,0,2.3,0,3,0C1379-140.5,1379-144.8,1379-149z"/>
				<path class="st2" d="M1379.3-117.7c5.3,0,10.5,0,15.8,0c-0.2,3.8,0,7.5,0.9,11.3c-2.2,0-4.4,0-6.6,0c0,4.5,0,9,0,13.5
					c-3.6,0-7.2,0-10.8,0c0,1.5,0,3,0,4.5c-1.5,0-3,0-4.5,0c0-0.6,0-1.7,0-2.3c-2.5,0-5,0-7.5,0c0-5,0-10,0-15c2.9,0,5.8,0,8.7,0
					c1.3-1.5,2.6-3,4-4.5C1379.3-112.7,1379.3-115.2,1379.3-117.7z"/>
				<path class="st2" d="M1344-106.7c2.8,0,5.7,0,8.5,0c0,0.8,0,2.3,0,3c3.8,0,7.7,0,11.5,0c0,5.3,0,10.7,0,16c-9.6,0-19.2,0-28.8,0
					c0-5.3,0-10.7,0-16c2.9,0,5.8,0,8.8,0C1344-104.5,1344-106,1344-106.7z"/>
			</g>
			<g id="house12">
				<path class="st2" d="M1455.2-111c3.8,0,7.5,0,11.3,0c0,3.2,0,6.3,0,9.5c2.8,0,5.7,0,8.5,0c0-1.3,0-2.7,0-4c2.6,0,5.2,0,7.8,0
					c0,4.8,0,9.7,0,14.5c-2.2,0-4.5,0-6.7,0c0,0.4-0.1,1.1-0.1,1.5c-7.7,0-15.3,0-22.9,0c0-5.6,0-11.2,0-16.8c0.6,0,1.8,0,2.4,0.1
					C1455.3-107.8,1455.3-109.4,1455.2-111z"/>
				<path class="st2" d="M1524.5-107.5c2.9,0,5.8,0,8.8,0c0,1,0,2,0,3c4.2,0,8.3,0,12.5,0c0,4.8,0,9.7,0,14.5c-9.5,0-19,0-28.5,0
					c0-4.8,0-9.7,0-14.5c2.4,0,4.8,0,7.3,0C1524.5-105.2,1524.5-106.7,1524.5-107.5z"/>
				<path class="st2" d="M1493-107.5c2.9,0,5.8,0,8.8,0c0,1,0,2,0,3c4.2,0,8.3,0,12.5,0c0,4.8,0,9.7,0,14.5c-9.5,0-19,0-28.5,0
					c0-4.8,0-9.7,0-14.5c2.4,0,4.8,0,7.3,0C1493-105.2,1493-106.7,1493-107.5z"/>
				<path class="st2" d="M1556-107.5c2.9,0,5.8,0,8.8,0c0,1,0,2,0,3c4.2,0,8.3,0,12.5,0c0,4.8,0,9.7,0,14.5c-9.5,0-19,0-28.5,0
					c0-4.8,0-9.7,0-14.5c2.4,0,4.8,0,7.3,0C1556-105.2,1556-106.7,1556-107.5z"/>
			</g>
			<g id="house8">
				<path class="st2" d="M1249.3-202.5c4.8,0,9.7,0,14.5,0c0,2.5,0,5,0,7.5c0.7,0,2.1,0,2.8,0c0,2.8,0,5.5,0,8.3c-0.9,0-1.8,0-2.8,0
					c0,4.2,0,8.3,0,12.5c-4.8,0-9.7,0-14.5,0C1249.3-183.7,1249.3-193.1,1249.3-202.5z"/>
				<path class="st2" d="M1249.3-173c4.8,0,9.7,0,14.5,0c0,2.5,0,5,0,7.5c0.7,0,2.1,0,2.8,0c0,2.7,0,5.3,0,8c-0.7,0-2.1,0-2.8,0
					c0,4.3,0,8.5,0,12.8c-4.8,0-9.7,0-14.5,0C1249.3-154.2,1249.3-163.6,1249.3-173z"/>
				<path class="st2" d="M1249.3-143.5c4.8,0,9.7,0,14.5,0c0,2.5,0,5,0,7.5c0.7,0,2.1,0,2.8,0c0,2.7,0,5.3,0,8c-0.7,0-2.1,0-2.8,0
					c0,4.2,0,8.3,0,12.5c-4.8,0-9.7,0-14.5,0C1249.3-124.8,1249.3-134.2,1249.3-143.5z"/>
				<path class="st2" d="M1249.5-113.7c5.3,0,10.7,0,16,0c0,2.5,0,5,0,7.5c1.3,1.5,2.6,3,3.8,4.5c3,0,6,0,8.9,0c0,5,0,10,0,15
					c-2.5,0-5,0-7.5,0c0,0.6,0.1,1.7,0.1,2.2c-1.5,0-3,0-4.5,0c0-1.4,0-2.8,0-4.3c-3.7,0-7.3,0-11,0c0-4.5,0-9,0-13.5
					c-2.1,0-3.4,0-5.5,0C1249.5-106.2,1249.6-109.9,1249.5-113.7z"/>
				<path class="st2" d="M1288.2-105.3c2.8,0,5.7,0,8.5,0c0,0.8,0,2.3,0,3c3.8,0,7.5,0,11.3,0c0,5.2,0,10.3,0,15.5
					c-9.5,0-19,0-28.5,0c0-5.2,0-10.3,0-15.5c2.9,0,5.8,0,8.8,0C1288.3-103,1288.2-104.5,1288.2-105.3z"/>
			</g>
			<g id="house6">
				<path class="st2" d="M1517.5,1c8.2,0,16.3,0,24.5,0c0,4.8,0,9.5,0,14.3c-2.4,0-4.8,0-7.3,0c0,0.8,0,2.3,0,3c-2.9,0-5.9,0-8.8,0
					c0-0.8,0-2.3,0-3c-2.8,0-5.7,0-8.5,0C1517.5,10.5,1517.5,5.8,1517.5,1z"/>
				<path class="st2" d="M1545,1c8.2,0,16.3,0,24.5,0c0,4.8,0,9.5,0,14.3c-2.4,0-4.8,0-7.2,0c0,0.7,0,2.2,0,3c-2.9,0-5.8,0-8.7,0
					c0-0.8,0-2.3,0-3c-2.8,0-5.7,0-8.5,0C1545,10.5,1545,5.8,1545,1z"/>
				<path class="st2" d="M1572.5,1c8.2,0,16.3,0,24.5,0c0,4.8,0,9.5,0,14.3c-2.4,0-4.8,0-7.3,0c0,0.8,0,2.3,0,3c-2.9,0-5.9,0-8.8,0
					c0-0.8,0-2.3,0-3c-2.8,0-5.7,0-8.5,0C1572.5,10.5,1572.5,5.8,1572.5,1z"/>
				<path class="st2" d="M1600,1c8.2,0,16.3,0,24.5,0c0,4.8,0,9.5,0,14.3c-2.4,0-4.8,0-7.2,0c0,0.7,0,2.2,0,3c-2.9,0-5.8,0-8.7,0
					c0-0.8,0-2.3,0-3c-2.8,0-5.7,0-8.5,0C1600,10.5,1600,5.8,1600,1z"/>
				<path class="st2" d="M1631.3,1.2c5.9,0,11.8,0,17.7,0c0,7.3,0,14.7,0,22c-0.5,0-1.5,0-2,0c0,2.7,0,5.3,0,8c-4.8,0-9.5,0-14.2,0
					c0-3.1,0-6.2,0-9.2c1.3,0,2.7,0,4,0c0-3,0-6,0-9c-3.3,0-6.7,0-10,0c0-3.3,0-6.7,0-10c1.5,0,3,0,4.5,0
					C1631.3,2.6,1631.3,1.7,1631.3,1.2z"/>
			</g>
			<g id="house4">
				<path class="st2" d="M1359,1.5c2,0,4,0,6,0c0,0.7,0,2.1,0,2.8c2.4,0,4.8,0,7.3,0c0,4.9,0,9.8,0,14.8c-2.7,0-5.4,0-8.2,0
					c-1.2,1.3-2.4,2.6-3.6,3.9c0,2.3,0,4.6,0,6.9c-5.3,0-10.7,0-16,0c0-2.4,0-4.8,0-7.2c-2-0.3-1-2.5-1.3-3.9c1.4,0,2.9,0,4.3,0
					c0-3.6,0-7.2,0-10.8c3.8,0,7.7,0,11.5,0C1359,5.8,1359,3.7,1359,1.5z"/>
				<path class="st2" d="M1384.3,0.7c3.3,0,6.5,0,9.8,0c0,0.8,0,2.4,0,3.3c3,0,6,0,9,0c0,4.9,0,9.8,0,14.8c-9.6,0-19.2,0-28.8,0
					c0-4.9,0-9.8,0-14.8c3.3,0,6.7,0,10,0C1384.3,3.2,1384.3,1.6,1384.3,0.7z"/>
				<path class="st2" d="M1413.3,0.7c3.2,0,6.5,0,9.8,0c0,0.8,0,2.4,0,3.3c2.3,0,4.7,0,7,0c0,4.9,0,9.8,0,14.8c-8.3,0-16.5,0-24.8,0
					c0-4.9,0-9.8,0-14.8c2.7,0,5.3,0,8,0C1413.3,3.2,1413.3,1.6,1413.3,0.7z"/>
				<path class="st2" d="M1440.8,0.8c3.2,0,6.5,0,9.7,0c0,1.1,0,2.2,0,3.3c2.3,0,4.7,0,7,0c0,4.9,0,9.8,0,14.8c-8.3,0-16.5,0-24.8,0
					c0-4.9,0-9.8,0-14.8c2.7,0,5.3,0,8,0C1440.8,3.2,1440.8,1.6,1440.8,0.8z"/>
				<path class="st2" d="M1467,1.5c1.9,0,3.8,0,5.8,0c0,1.8,0,3.7,0,5.5c3.2,0,6.3,0,9.5,0c0,3.9,0,7.8,0,11.8c2.1,0,4.2,0,6.3,0
					c-0.4,1.2,0.8,3.6-1.3,3.8c0,2.4,0,4.8,0,7.2c-4.9,0-9.9,0-14.8,0c0-2.2,0-4.4,0.1-6.5c-1.5-1.5-3.1-2.9-4.8-4.2
					c-2.7,0-5.4,0-8,0c0-4.9,0-9.8,0-14.8c2.4,0,4.8,0,7.3,0C1467,3.6,1467,2.2,1467,1.5z"/>
				<path class="st2" d="M1345.7,32.3c4.8,0,9.5,0,14.3,0c0,2.8,0,5.5,0,8.3c1.1,0,2.2,0,3.3,0c0,2.8,0,5.7,0,8.5
					c-0.8,0-2.4,0-3.3,0c0,3.1,0,6.2,0,9.3c-4.8,0-9.5,0-14.2,0C1345.7,49.6,1345.8,40.9,1345.7,32.3z"/>
				<path class="st2" d="M1472.7,32.3c4.7,0,9.3,0,14,0c0,8.7,0,17.3,0,26c-4.7,0-9.3,0-14,0c0-3.1,0-6.2,0-9.2c-1.1,0-2.2,0-3.3,0
					c0-2.8,0-5.7,0-8.5c1.1,0,2.2,0,3.3,0C1472.8,37.8,1472.8,35,1472.7,32.3z"/>
			</g>
			<g id="house2">
				<path class="st2" d="M1248.8,0.5c1.4,0,2.8,0,4.3,0c0,1.4,0,2.8,0,4.3c3.7,0,7.3,0,11,0c0,4.5,0,9,0,13.5c2.2,0,4.4,0,6.6,0
					c-0.1,1.2-0.2,2.2-0.8,3.5c-0.1,2.7-0.1,5.3-0.1,8c-5.3,0-10.7,0-16,0c0-2.5,0-5,0-7.5c-1.2-1.5-2.5-3-3.8-4.5c-3,0-6,0-9,0
					c0-5,0-10,0-15c2.6,0,5.2,0,7.7,0C1248.7,2.2,1248.8,1.1,1248.8,0.5z"/>
				<path class="st2" d="M1164.8,1c2.8,0,5.7,0,8.5,0c0,0.8,0,2.3,0,3c3.4,0,6.8,0,10.3,0c0,4.8,0,9.7,0,14.5c-9.8,0-19.7,0-29.5,0
					c0-4.8,0-9.7,0-14.5c3.6,0,7.2,0,10.8,0C1164.8,3.3,1164.8,1.8,1164.8,1z"/>
				<path class="st2" d="M1194.8,1c2.8,0,5.5,0,8.3,0c0,0.8,0,2.3,0,3c2.5,0,5,0,7.5,0c0,4.8,0,9.7,0,14.5c-8.5,0-17,0-25.5,0
					c0-4.8,0-9.7,0-14.5c3.3,0,6.5,0,9.8,0C1194.8,3.3,1194.8,1.8,1194.8,1z"/>
				<path class="st2" d="M1222.3,1c2.8,0,5.7,0,8.5,0c0,0.8,0,2.3,0,3c2.8,0,5.7,0,8.5,0c0,4.8,0,9.7,0,14.5c-8.9,0-17.8,0-26.8,0
					c0-4.8,0-9.7,0-14.5c3.3,0,6.5,0,9.8,0C1222.3,3.3,1222.3,1.8,1222.3,1z"/>
				<path class="st2" d="M1255.5,31.5c4.8,0,9.7,0,14.5,0c0,8.7,0,17.3,0,26c-4.8,0-9.7,0-14.5,0c0-3.2,0-6.3,0-9.5
					c-0.7,0-2.1,0-2.8,0c0-2.7,0-5.3,0-8c0.7,0,2.1,0,2.8,0C1255.5,37.2,1255.5,34.3,1255.5,31.5z"/>
				<path class="st2" d="M1255.5,59c4.8,0,9.7,0,14.5,0c0,8.7,0,17.3,0,26c-4.8,0-9.7,0-14.5,0c0-3.2,0-6.3,0-9.5
					c-0.7,0-2.1,0-2.8,0c0-2.7,0-5.3,0-8c0.7,0,2.1,0,2.8,0C1255.5,64.7,1255.5,61.8,1255.5,59z"/>
			</g>
			<g id="house3">
				<path class="st2" d="M1361.5,97.8c0-1,0-2,0-3c2.9,0,5.8,0,8.7,0c0,0.8,0,2.3,0,3c3.1,0,6.2,0,9.2,0c0,4.8,0,9.5,0,14.3
					c-8.1,0-16.2,0-24.3,0c0-4.8,0-9.5,0-14.3C1357.3,97.8,1359.4,97.8,1361.5,97.8z"/>
				<path class="st2" d="M1391.2,94.7c3,0,6,0,9,0c0,0.8,0,2.3,0,3c2.1,0,4.2,0,6.2,0c0,4.8,0,9.5,0,14.3c-8.1,0-16.2,0-24.3,0
					c0-4.8,0-9.5,0-14.3c3,0,6,0,9,0C1391.3,97,1391.2,95.5,1391.2,94.7z"/>
				<path class="st2" d="M1416.2,94.7c2.9,0,5.8,0,8.8,0c0,0.8,0,2.3,0,3c4.2,0,8.3,0,12.5,0c0,4.8,0,9.5,0,14.3c-9.5,0-19,0-28.5,0
					c0-4.8,0-9.5,0-14.3c2.4,0,4.8,0,7.3,0C1416.3,97,1416.2,95.5,1416.2,94.7z"/>
				<path class="st2" d="M1447.8,94.8c2.9,0,5.8,0,8.7,0c0,0.8,0,2.3,0,3c4.2,0,8.3,0,12.5,0c0,4.8,0,9.5,0,14.3c-9.5,0-19,0-28.5,0
					c0-4.8,0-9.5,0-14.3c2.4,0,4.8,0,7.2,0C1447.8,97,1447.8,95.5,1447.8,94.8z"/>
			</g>
			<g id="house5">
				<path class="st2" d="M1634.3,42c4.8,0,9.5,0,14.3,0c0,8.2,0,16.3,0,24.5c-4.8,0-9.5,0-14.3,0c0-2.4,0-4.9,0-7.3
					c-0.8,0-2.3,0-3,0c0-2.9,0-5.8,0-8.8c0.8,0,2.3,0,3,0C1634.3,47.7,1634.3,44.8,1634.3,42z"/>
				<path class="st2" d="M1634.3,69.5c4.8,0,9.5,0,14.3,0c0,8.2,0,16.3,0,24.5c-4.8,0-9.5,0-14.3,0c0-2.4,0-4.8,0-7.2
					c-0.8,0-2.2,0-3,0c0-2.9,0-5.8,0-8.7c0.8,0,2.3,0,3,0C1634.3,75.2,1634.3,72.3,1634.3,69.5z"/>
				<path class="st2" d="M1572.8,93.8c2.9,0,5.8,0,8.7,0c0,0.8,0,2.3,0,3c2.8,0,5.7,0,8.5,0c0,4.8,0,9.5,0,14.3
					c-8.2,0-16.3,0-24.5,0c0-4.8,0-9.5,0-14.3c2.4,0,4.8,0,7.2,0C1572.8,96,1572.8,94.5,1572.8,93.8z"/>
				<path class="st2" d="M1634.8,96.5c3.8,0,7.5,0,11.3,0c0,2.2-1.5,6,2.2,4.8c0,5.6,0,11.2,0,16.8c-9.7,0.1-19.4,0.2-28.8-1.2
					c0-4.9,0-9.8,0-14.8c2.2,0,4.5,0,6.8,0c0,1.3,0,2.7,0,4c2.8,0,5.7,0,8.5,0C1634.8,102.8,1634.8,99.7,1634.8,96.5z"/>
				<path class="st2" d="M1600.2,96.7c2.9,0,5.8,0,8.8,0c0,0.8,0,2.3,0,3c2.8,0,5.7,0,8.5,0c0,4.8,0,9.5,0,14.3
					c-8.2,0-16.3,0-24.5,0c0-4.8,0-9.5,0-14.3c2.4,0,4.8,0,7.3,0C1600.3,99,1600.2,97.5,1600.2,96.7z"/>
			</g>
			<g id="house1">
				<path class="st2" d="M1099,45.6c4.9-1.2,10-0.3,15-0.6c0,3.1,0,6.2,0,9.3c0.8,0,2.3,0,3,0c0,2.8,0,5.5,0,8.3c-0.8,0-2.3,0-3,0
					c0,2.8,0,5.7,0,8.5c-5-0.2-10.1,0.5-15-0.5V45.6z"/>
				<path class="st2" d="M1099,74.2l0.2,16.8l0.5-18.3c4.8,0,9.5,0,14.3,0c0,3.2,0,6.3,0,9.5c0.8,0,2.3,0,3,0c0,2.8,0,5.5,0,8.3
					c-0.8,0-2.3,0-3,0c0,2.8,0,5.7,0,8.5c-5-0.3-10.1,0.6-15-0.6V74.2z"/>
				<path class="st2" d="M1100,101.3c5.3,0,10.7,0,16,0c0,2.5,0,5,0,7.5c2.4,5.2,7.8,4.9,12.8,4.5c0,4.9,0,9.8,0,14.8
					c-2.6,0-5.2,0-7.7,0c0,0.6,0,1.7,0,2.3c-1.4,0-2.8,0-4.2,0c0-1.4,0-2.8,0-4.2c-3.7,0-7.3,0-11,0c0-4.5,0-9,0-13.5
					c-2.3,0-4.5-0.1-6.8-0.1C1099,112.4,1100,104.6,1100,101.3z"/>
				<path class="st2" d="M1140,109.5c2.8,0,5.5,0,8.3,0c0,1,0,2,0,3c3.5,0,7,0,10.5,0c0,4.9,0,9.8,0,14.8c-9.2,0-18.3,0-27.5,0
					c0-4.9,0-9.8,0-14.8c2.9,0,5.8,0,8.8,0C1140,111.8,1140,110.3,1140,109.5z"/>
				<path class="st2" d="M1171,109.5c2.8,0,5.5,0,8.3,0c0,1,0,2,0,3c2.5,0,5,0,7.5,0c0,4.9,0,9.8,0,14.8c-8.5,0-17,0-25.5,0
					c0-4.9,0-9.8,0-14.8c3.3,0,6.5,0,9.8,0C1171,111.8,1171,110.3,1171,109.5z"/>
				<path class="st2" d="M1199.5,109.5c2.8,0,5.7,0,8.5,0c0,0.8,0,2.3,0,3c2.4,0,4.8,0,7.3,0c0,4.9,0,9.8,0,14.7c-8.5,0-17,0-25.5,0
					c0-4.9,0-9.8,0-14.7c3.3,0,6.5,0,9.8,0C1199.5,111.8,1199.5,110.3,1199.5,109.5z"/>
			</g>
		</g>
		<g>
			<path class="st3" d="M1281.7-247h23.5c0,5.4,0,10.8,0,16.3c-2.3,0-4.5,0-6.8,0c0,0.8,0,2.3,0,3c-2.8,0-5.7,0-8.5,0
				c0-0.8,0-2.3,0-3c-2.8,0-5.5,0-8.3,0C1281.7-236.2,1281.7-241.6,1281.7-247z"/>
			<path class="st3" d="M1309-247h23.8c0,5.4,0,10.8,0,16.3c-2.3,0-4.6,0-7,0c0,0.8,0,2.3-0.1,3c-2.8,0-5.6,0-8.5,0c0-0.8,0-2.2,0-3
				c-2.8,0-5.5,0-8.3,0C1309-236.2,1309-241.6,1309-247z"/>
			<path class="st3" d="M1335.2-247h23.8c0,5.4,0,10.8,0,16.2c-2.3,0-4.6,0-6.9,0c0,0.8-0.1,2.2-0.1,3c-2.8,0.1-5.6,0.1-8.4,0
				c0-0.7,0-2.2-0.1-3c-2.7,0-5.5,0-8.2,0C1335.2-236.2,1335.2-241.6,1335.2-247z"/>
			<path class="st3" d="M1248-246.7c7.5,0,15,0,22.4,0c0,0.4,0.1,1.3,0.1,1.8c2.7,0,5.3,0,8,0c0,4.6,0,9.2,0,13.7
				c-3.1,0-6.3,0-9.5,0c0-0.7,0-2.2,0-3c-2.5,0-5,0-7.5,0c0,3.1,0,6.1,0,9.2c-3.5,0-7,0-10.5,0c0-1.2,0-2.3,0-3.5c-0.8,0-2.2,0-3,0
				C1248-234.6,1248-240.7,1248-246.7z"/>
			<path class="st3" d="M1368.8-241c7.6,0,15.3,0,22.9,0c0,5.6,0,11.2,0,16.7c-0.6,0-1.9,0-2.5,0c-0.1,1.6,0.1,3.1,0.4,4.6
				c-3.8,0.3-7.6,0.1-11.4,0.1c0-3.2,0-6.3,0-9.5c-2.8,0-5.7,0-8.5,0c0,1.3,0,2.7,0,4c-2.6,0-5.2,0-7.8,0c0-4.8,0-9.7,0-14.5
				c2.2,0,4.4,0,6.6,0.1C1368.7-239.8,1368.8-240.6,1368.8-241z"/>
			<path class="st3" d="M1376.5-217.2c5.4-0.1,10.8,0,16.2,0v23.8c-5.4,0-10.8,0-16.2,0c0-2.3,0-4.6,0.1-6.9c-1,0-2-0.1-3.1-0.1
				c0-2.8,0-5.6,0-8.4c0.8,0,2.3,0,3-0.1C1376.5-211.8,1376.5-214.5,1376.5-217.2z"/>
		</g>
		<g>
			<g id="_x34_">
				<linearGradient id="SVGID_1_" gradientUnits="userSpaceOnUse" x1="1415" y1="9" x2="1415" y2="-25">
					<stop  offset="0" style="stop-color:#454545"/>
					<stop  offset="1" style="stop-color:#777777"/>
				</linearGradient>
				<path class="st4" d="M1403-25h24V0.7c-3.7,2.9-7.7,5.4-11.4,8.3h-1.2c-3.7-2.9-7.7-5.5-11.4-8.3V-25z"/>
			</g>
			<g id="_x31_2">
				<linearGradient id="SVGID_2_" gradientUnits="userSpaceOnUse" x1="1517" y1="-97" x2="1517" y2="-131">
					<stop  offset="0" style="stop-color:#454545"/>
					<stop  offset="1" style="stop-color:#777777"/>
				</linearGradient>
				<path class="st5" d="M1505-131h24v25.7c-3.7,2.9-7.7,5.4-11.4,8.3h-1.2c-3.7-2.9-7.7-5.5-11.4-8.3V-131z"/>
			</g>
			<g id="_x31_1">
				<linearGradient id="SVGID_3_" gradientUnits="userSpaceOnUse" x1="1657" y1="-130" x2="1657" y2="-164">
					<stop  offset="0" style="stop-color:#454545"/>
					<stop  offset="1" style="stop-color:#777777"/>
				</linearGradient>
				<path class="st6" d="M1645-164h24v25.7c-3.7,2.9-7.7,5.4-11.4,8.3h-1.2c-3.7-2.9-7.7-5.5-11.4-8.3V-164z"/>
			</g>
			<g id="_x36_">
				<linearGradient id="SVGID_4_" gradientUnits="userSpaceOnUse" x1="1594" y1="9" x2="1594" y2="-25">
					<stop  offset="0" style="stop-color:#454545"/>
					<stop  offset="1" style="stop-color:#777777"/>
				</linearGradient>
				<path class="st7" d="M1582-25h24V0.7c-3.7,2.9-7.7,5.4-11.4,8.3h-1.2c-3.7-2.9-7.7-5.5-11.4-8.3V-25z"/>
			</g>
			<g id="_x35_">
				<linearGradient id="SVGID_5_" gradientUnits="userSpaceOnUse" x1="1630" y1="108" x2="1630" y2="74">
					<stop  offset="0" style="stop-color:#454545"/>
					<stop  offset="1" style="stop-color:#777777"/>
				</linearGradient>
				<path class="st8" d="M1618,74h24v25.7c-3.7,2.9-7.7,5.4-11.4,8.3h-1.2c-3.7-2.9-7.7-5.5-11.4-8.3V74z"/>
			</g>
			<g id="_x33_">
				<linearGradient id="SVGID_6_" gradientUnits="userSpaceOnUse" x1="1418" y1="108" x2="1418" y2="74">
					<stop  offset="0" style="stop-color:#454545"/>
					<stop  offset="1" style="stop-color:#777777"/>
				</linearGradient>
				<path class="st9" d="M1406,74h24v25.7c-3.7,2.9-7.7,5.4-11.4,8.3h-1.2c-3.7-2.9-7.7-5.5-11.4-8.3V74z"/>
			</g>
			<g id="_x39_">
				<linearGradient id="SVGID_7_" gradientUnits="userSpaceOnUse" x1="1371" y1="-101" x2="1371" y2="-135">
					<stop  offset="0" style="stop-color:#454545"/>
					<stop  offset="1" style="stop-color:#777777"/>
				</linearGradient>
				<path class="st10" d="M1359-135h24v25.7c-3.7,2.9-7.7,5.4-11.4,8.3h-1.2c-3.7-2.9-7.7-5.5-11.4-8.3V-135z"/>
			</g>
			<g id="_x38_">
				<linearGradient id="SVGID_8_" gradientUnits="userSpaceOnUse" x1="1257" y1="-130" x2="1257" y2="-164">
					<stop  offset="0" style="stop-color:#454545"/>
					<stop  offset="1" style="stop-color:#777777"/>
				</linearGradient>
				<path class="st11" d="M1245-164h24v25.7c-3.7,2.9-7.7,5.4-11.4,8.3h-1.2c-3.7-2.9-7.7-5.5-11.4-8.3V-164z"/>
			</g>
			<g id="_x32_">
				<linearGradient id="SVGID_9_" gradientUnits="userSpaceOnUse" x1="1231" y1="12" x2="1231" y2="-22">
					<stop  offset="0" style="stop-color:#454545"/>
					<stop  offset="1" style="stop-color:#777777"/>
				</linearGradient>
				<path class="st12" d="M1219-22h24V3.7c-3.7,2.9-7.7,5.4-11.4,8.3h-1.2c-3.7-2.9-7.7-5.5-11.4-8.3V-22z"/>
			</g>
			<g id="_x31_">
				<linearGradient id="SVGID_10_" gradientUnits="userSpaceOnUse" x1="1124" y1="118" x2="1124" y2="84">
					<stop  offset="0" style="stop-color:#454545"/>
					<stop  offset="1" style="stop-color:#777777"/>
				</linearGradient>
				<path class="st13" d="M1112,84h24v25.7c-3.7,2.9-7.7,5.4-11.4,8.3h-1.2c-3.7-2.9-7.7-5.5-11.4-8.3V84z"/>
			</g>
			<g id="_x31_0">
				<linearGradient id="SVGID_11_" gradientUnits="userSpaceOnUse" x1="1517" y1="-205" x2="1517" y2="-239">
					<stop  offset="0" style="stop-color:#454545"/>
					<stop  offset="1" style="stop-color:#777777"/>
				</linearGradient>
				<path class="st14" d="M1505-239h24v25.7c-3.7,2.9-7.7,5.4-11.4,8.3h-1.2c-3.7-2.9-7.7-5.5-11.4-8.3V-239z"/>
			</g>
		</g>
	</g>
</switch>
</svg>
