<?xml version="1.0" standalone="no"?>
<!DOCTYPE svg PUBLIC "-//W3C//DTD SVG 1.1//EN" "http://www.w3.org/Graphics/SVG/1.1/DTD/svg11.dtd" >
<svg xmlns="http://www.w3.org/2000/svg" xmlns:xlink="http://www.w3.org/1999/xlink" version="1.1">
<metadata>
Created by FontForge 20150824 at Wed May 25 02:57:15 2016
 By Everything Fonts
Geneva Oblique is a product of MicroLogic Software, Inc.
</metadata>
<defs>
<font id="GenevaOblique_20132" horiz-adv-x="1020" >
  <font-face 
    font-family="GenevaOblique_20132"
    font-weight="400"
    font-style="oblique"
    font-stretch="normal"
    units-per-em="2048"
    panose-1="2 11 6 0 0 0 0 9 0 0"
    ascent="1638"
    descent="-410"
    x-height="1062"
    cap-height="1459"
    bbox="-337 -483 2507 1955"
    underline-thickness="150"
    underline-position="-527"
    slope="-12"
    unicode-range="U+0020-25CA"
  />
<missing-glyph horiz-adv-x="1372" 
d="M1200 1193v-1032h-1032v1032h1032zM258 1107v-860h852v860h-852z" />
    <glyph glyph-name=".notdef" horiz-adv-x="1372" 
d="M1200 1193v-1032h-1032v1032h1032zM258 1107v-860h852v860h-852z" />
    <glyph glyph-name="glyph1" horiz-adv-x="0" 
 />
    <glyph glyph-name="nonmarkingreturn" horiz-adv-x="682" 
 />
    <glyph glyph-name="space" unicode=" " horiz-adv-x="561" 
 />
    <glyph glyph-name="space" unicode="&#xa0;" horiz-adv-x="561" 
 />
    <glyph glyph-name="exclam" unicode="!" horiz-adv-x="655" 
d="M74 0l45 214h217l-49 -214h-213zM582 1459l-279 -1093h-55h-51l184 1093h201z" />
    <glyph glyph-name="quotedbl" unicode="&#x22;" horiz-adv-x="610" 
d="M520 1422v-549h-135v549h135zM90 873v549h135v-549h-135z" />
    <glyph glyph-name="numbersign" unicode="#" horiz-adv-x="1569" 
d="M700 849l-94 -262h266l95 262h-267zM754 1447h164l-164 -455h262l160 455h163l-159 -455h299l-54 -143h-299l-94 -262h320l-49 -144h-320l-160 -447h-164l160 447h-258l-164 -447h-164l160 447h-307l45 144h315l95 262h-328l45 143h332z" />
    <glyph glyph-name="dollar" unicode="$" horiz-adv-x="1118" 
d="M750 1410q164 -29 236.5 -119t70.5 -266h-168q3 58 -29.5 134t-142.5 100l-107 -480q170 -57 258.5 -137t89.5 -235q-2 -208 -140.5 -326.5t-383.5 -121.5l-37 -160h-102l41 172q-165 40 -244.5 144t-79.5 287h172q0 -110 46.5 -186t138.5 -88l114 512q-157 61 -234 144
t-77 233q4 160 118 277.5t296 123.5h69l25 115h98q-10 -21 -18.5 -69t-9.5 -54zM524 816l99 451q-138 -3 -203 -80t-64 -191q1 -64 47 -108.5t121 -71.5zM573 599l-106 -487q156 1 230 75.5t73 210.5q-2 78 -57 122t-140 79z" />
    <glyph glyph-name="percent" unicode="%" horiz-adv-x="1724" 
d="M1360 1422l-877 -1463h-123l881 1463h119zM426 1381q132 -1 237 -93t111 -259q-6 -167 -111 -259t-237 -93t-240.5 83t-115.5 265q7 181 115.5 268.5t240.5 87.5zM426 1238q-80 0 -144.5 -52.5t-68.5 -156.5q4 -104 69 -156.5t148 -52.5q83 2 140.5 62t60.5 151
q-3 91 -64 147t-141 58zM1303 701q131 -1 236.5 -93t111.5 -259q-6 -167 -111.5 -257.5t-236.5 -91.5q-133 0 -241.5 82.5t-115.5 262.5q7 181 115.5 268.5t241.5 87.5zM1303 558q-81 0 -145 -52.5t-68 -156.5q4 -104 68.5 -156.5t148.5 -52.5q82 2 139.5 62t60.5 151
q-3 91 -63.5 147t-140.5 58z" />
    <glyph glyph-name="ampersand" unicode="&#x26;" horiz-adv-x="1356" 
d="M864 116q-92 -75 -195 -113.5t-223 -39.5q-182 3 -299.5 109.5t-121.5 293.5q-2 164 95 282t314 209q-45 69 -81 146.5t-38 177.5q3 131 98 210t251 81q164 -4 238 -90.5t73 -204.5q-3 -138 -91 -231t-220 -150l249 -414q42 59 75.5 135.5t35.5 134.5h168
q-3 -101 -61.5 -222t-135.5 -191l144 -238h-205zM508 726q-119 -51 -210.5 -130.5t-96.5 -209.5q0 -110 66.5 -186.5t195.5 -79.5q88 0 167 32t161 99zM643 1328q-74 -1 -114.5 -43t-41.5 -108q1 -65 32 -128t75 -122q110 60 161.5 116.5t51.5 129.5q2 52 -33 101.5
t-131 53.5z" />
    <glyph glyph-name="quotesingle" unicode="'" horiz-adv-x="315" 
d="M90 873v549h135v-549h-135z" />
    <glyph glyph-name="parenleft" unicode="(" horiz-adv-x="684" 
d="M307 -434q-86 200 -131 382t-45 393q10 369 176.5 647t364.5 471h135q-316 -390 -414.5 -684.5t-89.5 -568.5q0 -147 26 -296.5t81 -343.5h-103z" />
    <glyph glyph-name="parenright" unicode=")" horiz-adv-x="684" 
d="M295 1459q86 -199 131 -382.5t45 -395.5q-10 -368 -174 -644.5t-359 -470.5h-136q314 389 410 682.5t87 567.5q0 148 -25.5 299t-80.5 344h102z" />
    <glyph glyph-name="asterisk" unicode="*" 
d="M270 783l197 246l-287 78l49 156l271 -95v291h155v-295l275 99l53 -152l-287 -82l193 -242l-131 -98l-176 258l-181 -258z" />
    <glyph glyph-name="plus" unicode="+" horiz-adv-x="1700" 
d="M1446 673v-135h-528v-538h-136v538h-528v135h528v536h136v-536h528z" />
    <glyph glyph-name="comma" unicode="," horiz-adv-x="557" 
d="M-9 -221q43 8 88.5 59t63.5 162h-106l49 210h217l-45 -201q-32 -143 -98.5 -220t-185.5 -104z" />
    <glyph glyph-name="hyphen" unicode="-" horiz-adv-x="639" 
d="M20 456l33 155h492l-33 -155h-492z" />
    <glyph glyph-name="hyphen" unicode="&#xad;" horiz-adv-x="639" 
d="M20 456l33 155h492l-33 -155h-492z" />
    <glyph glyph-name="period" unicode="." horiz-adv-x="561" 
d="M295 214l-45 -214h-217l45 214h217z" />
    <glyph glyph-name="slash" unicode="/" horiz-adv-x="614" 
d="M492 1500h122l-495 -1688h-119z" />
    <glyph glyph-name="zero" unicode="0" horiz-adv-x="1118" 
d="M881 947q3 133 -48.5 224.5t-189.5 95.5q-189 -25 -296 -290.5t-109 -471.5q-5 -159 37.5 -273.5t191.5 -119.5q212 25 313.5 310t100.5 525zM655 1422q219 -4 317.5 -141.5t96.5 -353.5q0 -322 -151 -633t-455 -335q-238 7 -328 157t-86 377q0 284 151 593.5t455 335.5z
" />
    <glyph glyph-name="one" unicode="1" horiz-adv-x="1118" 
d="M578 0h-177l230 1078q-78 -22 -180 -37t-213 -16l28 131q197 9 320.5 74.5t167.5 191.5h127z" />
    <glyph glyph-name="two" unicode="2" horiz-adv-x="1118" 
d="M127 955q3 175 123.5 317t359.5 150q225 -5 326.5 -120t99.5 -277q-6 -178 -114.5 -295t-258 -204t-274.5 -171t-164 -198h705l-33 -157h-889q17 226 142.5 360.5t286.5 224.5t282 185t129 243q2 99 -50.5 172.5t-183.5 77.5q-135 -1 -210.5 -80t-88.5 -228h-188z" />
    <glyph glyph-name="three" unicode="3" horiz-adv-x="1118" 
d="M344 984h-184q11 167 127 299t348 139q203 -3 306 -103t103 -257q-1 -133 -64.5 -221t-172.5 -123q85 -52 123 -126t37 -169q-3 -198 -139.5 -328t-364.5 -136q-235 6 -337.5 116t-100.5 266l12 115h180q-3 -28 -5.5 -54t-2.5 -45q-2 -101 55 -169.5t191 -71.5
q160 3 243.5 93t83.5 234q-2 89 -67 148t-174 61h-82l33 148h110q127 3 194 77t68 181q2 75 -52.5 140t-184.5 69q-129 -2 -198.5 -78.5t-84.5 -204.5z" />
    <glyph glyph-name="four" unicode="4" horiz-adv-x="1118" 
d="M524 0l78 353h-602l33 156l811 872h151l-184 -876h205l-33 -152h-205l-78 -353h-176zM209 505h426l131 614z" />
    <glyph glyph-name="five" unicode="5" horiz-adv-x="1118" 
d="M459 120q177 6 262.5 123t85.5 274q0 133 -60 203.5t-186 71.5q-115 -1 -183 -42t-104 -110h-168l226 741h712l-28 -155h-574l-110 -377q45 38 112 65.5t162 28.5q178 -4 280.5 -121t104.5 -305q1 -199 -132 -372.5t-408 -185.5q-189 5 -296.5 106.5t-109.5 246.5v82h172
v-61q1 -91 64 -151t178 -62z" />
    <glyph glyph-name="six" unicode="6" horiz-adv-x="1118" 
d="M721 1422q197 -3 279.5 -109.5t80.5 -279.5h-176q2 101 -44 166.5t-161 67.5q-161 -5 -257.5 -138t-147.5 -329q49 48 133.5 88.5t198.5 42.5q191 -4 286 -116.5t95 -285.5q1 -221 -126 -390.5t-390 -179.5q-217 7 -320 134t-102 305q-6 365 139.5 684t511.5 340z
M250 402q0 -140 61 -220.5t189 -82.5q162 8 240.5 133t78.5 277q-1 117 -62.5 194t-178.5 80q-166 -6 -247 -121t-81 -260z" />
    <glyph glyph-name="seven" unicode="7" horiz-adv-x="1118" 
d="M1102 1234q-260 -270 -463 -569t-254 -665h-205q33 200 99.5 365.5t162 308t210 276.5t241.5 272h-741l36 159h942z" />
    <glyph glyph-name="eight" unicode="8" horiz-adv-x="1118" 
d="M541 661q-159 -5 -235.5 -95.5t-76.5 -212.5q-1 -112 55 -180t187 -70q154 5 232.5 101.5t78.5 230.5q1 95 -57.5 159t-183.5 67zM1040 1050q-2 -109 -63.5 -192.5t-161.5 -127.5q71 -42 113 -114t43 -177q0 -191 -129.5 -331.5t-382.5 -148.5q-212 4 -315 108.5
t-103 273.5q2 154 81 259t210 155q-74 43 -111 107.5t-37 150.5q1 143 114 266t329 131q211 -4 312.5 -105t100.5 -255zM365 1017q0 -94 58.5 -150.5t178.5 -58.5q121 3 189 74t69 172q0 85 -57 144t-168 61q-127 -2 -198 -67.5t-72 -174.5z" />
    <glyph glyph-name="nine" unicode="9" horiz-adv-x="1118" 
d="M1040 980q6 -365 -139.5 -682t-511.5 -339q-197 4 -279.5 109t-80.5 277h180q-2 -101 42 -166t159 -67q161 5 257.5 138t147.5 329q-49 -49 -133.5 -91t-198.5 -45q-190 4 -285.5 118.5t-95.5 287.5q-1 222 126 393t390 180q217 -6 320 -135t102 -307zM532 595
q166 7 247 121.5t81 259.5q1 140 -60 220.5t-190 82.5q-162 -8 -240.5 -133t-78.5 -277q1 -116 62.5 -193.5t178.5 -80.5z" />
    <glyph glyph-name="colon" unicode=":" horiz-adv-x="606" 
d="M270 0h-217l45 214h217zM487 1029l-45 -217h-217l45 217h217z" />
    <glyph glyph-name="semicolon" unicode=";" horiz-adv-x="610" 
d="M274 1q-19 -102 -83 -193t-200 -123l13 94q64 19 101 66.5t55 154.5h-107l49 210h217zM229 812l50 217h217l-45 -217h-222z" />
    <glyph glyph-name="less" unicode="&#x3c;" horiz-adv-x="1700" 
d="M262 538v131l1168 479v-152l-971 -393l971 -393v-152z" />
    <glyph glyph-name="equal" unicode="=" horiz-adv-x="1700" 
d="M1442 730h-1188v135h1188v-135zM1442 472v-135h-1188v135h1188z" />
    <glyph glyph-name="greater" unicode="&#x3e;" horiz-adv-x="1700" 
d="M1434 669v-131l-1168 -480v152l971 393l-971 393v152z" />
    <glyph glyph-name="question" unicode="?" horiz-adv-x="1073" 
d="M844 1107q0 86 -62 144.5t-180 60.5q-140 -5 -209 -95t-78 -208h-176q7 187 124 319.5t339 138.5q201 -3 314.5 -100t115.5 -248q-4 -186 -79.5 -280.5t-177 -149.5t-180.5 -121.5t-87 -197.5h-168q18 174 95 261t170 140t164 124t75 212zM303 206h201l-41 -206h-201z
" />
    <glyph glyph-name="at" unicode="@" horiz-adv-x="2040" 
d="M1098 304q32 24 64.5 97t82.5 309q2 36 -41.5 104t-154.5 76q-177 -12 -253.5 -163t-74.5 -304q1 -96 52.5 -148t144.5 -53q49 0 94 21t86 61zM1368 116q-100 -1 -144.5 40.5t-43.5 135.5q-44 -70 -114.5 -121.5t-197.5 -54.5q-161 3 -232.5 95.5t-70.5 240.5
q1 203 122.5 366.5t352.5 173.5q93 -2 155.5 -45.5t82.5 -109.5l61 123h123q-32 -125 -60 -232.5t-48.5 -191.5t-31.5 -137.5t-11 -69.5q1 -44 25.5 -69t64.5 -25q175 9 282.5 169t110.5 363q-5 251 -194.5 405.5t-501.5 159.5q-394 -11 -620.5 -246t-231.5 -557
q7 -359 228 -534t566 -175q184 4 341 60.5t261 124.5l54 -75q-114 -85 -282.5 -151t-389.5 -70q-428 8 -671 229t-247 575q7 395 275 661t709 277q389 -6 613.5 -195.5t229.5 -484.5q4 -202 -127 -419.5t-438 -235.5z" />
    <glyph glyph-name="A" unicode="A" horiz-adv-x="1233" 
d="M864 411h-585l-218 -411h-205l787 1459h242l241 -1459h-196zM840 579l-107 688l-368 -688h475z" />
    <glyph glyph-name="B" unicode="B" horiz-adv-x="1372" 
d="M225 165h488q178 6 250 96t69 191q2 94 -57.5 154.5t-208.5 62.5h-434zM4 0l311 1459h586q185 -2 282.5 -97t98.5 -263q-1 -141 -66.5 -226t-183.5 -118q112 -45 155.5 -124t41.5 -167q-1 -201 -127 -330.5t-361 -133.5h-737zM369 828h405q171 3 246.5 78t73.5 189
q0 93 -57.5 144t-168.5 52h-401z" />
    <glyph glyph-name="C" unicode="C" horiz-adv-x="1442" 
d="M1130 517h185q-38 -226 -215 -389.5t-449 -172.5q-303 9 -434 191.5t-131 436.5q0 325 190 606t576 299q278 -8 408 -159.5t129 -352.5h-193q0 145 -92 240.5t-277 99.5q-287 -18 -416.5 -253t-127.5 -468q0 -229 98.5 -351.5t294.5 -123.5q175 4 290 115.5t164 281.5z
" />
    <glyph glyph-name="D" unicode="D" horiz-adv-x="1454" 
d="M229 161h377q305 15 423.5 238.5t113.5 469.5q3 196 -87.5 310t-314.5 116h-270zM319 1459h480q319 -9 439 -187.5t114 -414.5q2 -336 -169.5 -590t-535.5 -267h-643z" />
    <glyph glyph-name="E" unicode="E" horiz-adv-x="1200" 
d="M336 669l-107 -496h742l-33 -173h-934l311 1459h881l-33 -172h-696l-94 -450h667l-32 -168h-672z" />
    <glyph glyph-name="F" unicode="F" horiz-adv-x="1098" 
d="M193 0h-189l311 1459h836l-37 -172h-647l-94 -450h622l-37 -176h-622z" />
    <glyph glyph-name="G" unicode="G" horiz-adv-x="1536" 
d="M1204 599h-463l33 156h647l-159 -754h-148l12 156q-67 -74 -175.5 -132t-270.5 -62q-311 7 -451.5 182.5t-138.5 445.5q-3 307 177 597.5t585 311.5q290 -5 429 -145.5t144 -354.5h-192q-4 137 -95.5 232.5t-297.5 99.5q-285 -16 -421.5 -255.5t-135.5 -510.5
q2 -199 110 -317t303 -121q196 1 321.5 120.5t186.5 350.5z" />
    <glyph glyph-name="H" unicode="H" horiz-adv-x="1430" 
d="M1110 0h-197l152 689h-721l-151 -689h-189l311 1459h193l-131 -602h725l127 602h192z" />
    <glyph glyph-name="I" unicode="I" horiz-adv-x="532" 
d="M520 1459l-311 -1459h-201l311 1459h201z" />
    <glyph glyph-name="J" unicode="J" horiz-adv-x="1008" 
d="M991 1459q-188 -915 -245.5 -1131t-122.5 -249q-47 -48 -128 -81t-192 -35q-183 4 -266 93.5t-83 231.5q1 43 6.5 89t13.5 95h186q-13 -52 -19 -94.5t-6 -81.5q0 -75 41.5 -119t130.5 -45q52 0 95.5 16.5t80.5 53.5q40 9 89 205.5t227 1051.5h192z" />
    <glyph glyph-name="K" unicode="K" horiz-adv-x="1262" 
d="M1122 1459h242l-631 -602l443 -857h-205l-373 734l-303 -278l-94 -456h-193l311 1459h189l-156 -745z" />
    <glyph glyph-name="L" unicode="L" horiz-adv-x="1135" 
d="M238 173h761l-36 -173h-955l311 1459h189z" />
    <glyph glyph-name="M" unicode="M" horiz-adv-x="1720" 
d="M4 0l311 1459h279l160 -1216l667 1216h295l-311 -1459h-184l266 1230l-684 -1230h-189l-163 1259l-263 -1259h-184z" />
    <glyph glyph-name="N" unicode="N" horiz-adv-x="1425" 
d="M1417 1459l-311 -1459h-94h-90l-484 1152l-245 -1152h-189l311 1459h189l479 -1159l246 1159h188z" />
    <glyph glyph-name="O" unicode="O" horiz-adv-x="1565" 
d="M864 1332q-297 -17 -441.5 -253.5t-143.5 -495.5q-1 -200 101 -325.5t325 -129.5q272 14 419.5 242.5t149.5 507.5q1 189 -99 319t-311 135zM881 1500q292 -6 442.5 -178.5t151.5 -439.5q-4 -378 -216.5 -642t-582.5 -277q-314 11 -457 192.5t-141 418.5q2 343 209.5 626
t593.5 300z" />
    <glyph glyph-name="P" unicode="P" horiz-adv-x="1253" 
d="M676 611h-348l-135 -611h-189l311 1459h500q210 -4 302.5 -112.5t90.5 -272.5q-1 -211 -135.5 -335.5t-396.5 -127.5zM791 1299h-320l-111 -520h328q180 2 257 82.5t75 208.5q1 106 -53.5 167t-175.5 62z" />
    <glyph glyph-name="Q" unicode="Q" horiz-adv-x="1565" 
d="M815 378l156 -168q108 60 202.5 233t100.5 410q0 213 -104 342t-310 133q-305 -16 -446.5 -258.5t-139.5 -519.5q1 -193 103.5 -308t294.5 -118q34 0 70 4t73 16l-115 131zM1241 -86l-115 -107l-188 202q-64 -24 -129.5 -34.5t-132.5 -11.5q-307 6 -455 174t-147 437
q4 359 215.5 635t578.5 291q304 -4 453 -178.5t149 -464.5q-9 -300 -132.5 -502t-252.5 -272z" />
    <glyph glyph-name="R" unicode="R" horiz-adv-x="1352" 
d="M1102 181q-3 -66 6.5 -99.5t34.5 -47.5v-34h-230q-9 19 -12.5 46.5t-3.5 73.5q1 70 10.5 179t10.5 149q0 108 -61 147t-181 37h-348l-135 -632h-189l315 1459h553q213 -5 306.5 -109.5t91.5 -250.5q1 -140 -65.5 -245.5t-213.5 -156.5q81 -28 105 -86t22 -139
q-1 -26 -8 -110.5t-8 -180.5zM467 1291l-102 -491h385q136 0 229.5 70.5t97.5 211.5q8 54 -39 128t-247 81h-324z" />
    <glyph glyph-name="S" unicode="S" horiz-adv-x="1217" 
d="M1044 431q-2 -214 -141.5 -339t-390.5 -129q-265 4 -385.5 133t-118.5 356h180q-1 -160 84.5 -242t268.5 -82q140 3 222.5 81t84.5 198q-6 114 -105.5 171.5t-230.5 105.5t-229.5 134t-102.5 260q2 175 130 296t354 126q275 -4 389 -130t110 -324h-184q2 131 -67 211.5
t-236 82.5q-156 -3 -231.5 -75t-75.5 -183q4 -102 103 -159.5t231.5 -109.5t233.5 -137t107 -245z" />
    <glyph glyph-name="T" unicode="T" horiz-adv-x="1102" 
d="M774 1299l-274 -1299h-193l279 1299h-451l37 160h1045l-37 -160h-406z" />
    <glyph glyph-name="U" unicode="U" horiz-adv-x="1405" 
d="M598 136q69 -1 149 21.5t146 85.5q52 24 101 214t214 1002h189q-176 -873 -233 -1081.5t-132 -253.5q-69 -69 -183 -113.5t-259 -47.5q-241 5 -368 116t-128 287q0 49 25.5 183t62.5 306t74 335t59 269h189q-25 -104 -60.5 -266t-71.5 -333t-60.5 -305t-24.5 -181
q2 -117 85 -177.5t226 -60.5z" />
    <glyph glyph-name="V" unicode="V" horiz-adv-x="1126" 
d="M279 1459l192 -1220l582 1220h200l-716 -1459h-201l-246 1459h189z" />
    <glyph glyph-name="W" unicode="W" horiz-adv-x="1692" 
d="M315 1459l78 -1143l455 1143h192l111 -1147l446 1147h185l-574 -1459h-192l-115 1173l-463 -1173h-192l-107 1459h176z" />
    <glyph glyph-name="X" unicode="X" horiz-adv-x="1065" 
d="M635 730l348 -730h-205l-262 579l-410 -579h-214l542 747l-340 712h201l258 -561l393 561h221z" />
    <glyph glyph-name="Y" unicode="Y" horiz-adv-x="1049" 
d="M582 570l-115 -570h-193l127 603l-327 856h196l254 -680l455 680h107h110z" />
    <glyph glyph-name="Z" unicode="Z" horiz-adv-x="1171" 
d="M-38 0l33 165l935 1126h-725l37 168h954l-37 -172l-930 -1118h766l-37 -169h-996z" />
    <glyph glyph-name="bracketleft" unicode="[" horiz-adv-x="721" 
d="M545 1324l-344 -1594h188l-24 -136h-357l398 1865h344l-21 -135h-184z" />
    <glyph glyph-name="backslash" unicode="\" horiz-adv-x="614" 
d="M430 -188h-119l-135 1688h115z" />
    <glyph glyph-name="bracketright" unicode="]" horiz-adv-x="725" 
d="M434 1324h-188l24 135h357l-398 -1865h-341l21 136h181z" />
    <glyph glyph-name="asciicircum" unicode="^" horiz-adv-x="2040" 
d="M418 894l508 553h180l508 -553h-176l-422 418l-422 -418h-176z" />
    <glyph glyph-name="underscore" unicode="_" 
d="M0 -344h1016v-139h-1016v139z" />
    <glyph glyph-name="grave" unicode="`" 
d="M549 1549l209 -344h-107l-299 344h197z" />
    <glyph glyph-name="a" unicode="a" horiz-adv-x="1077" 
d="M709 538q-97 -31 -193 -38t-175 -16.5t-128 -51.5t-49 -144q0 -76 46 -123.5t138 -48.5q141 -1 239 102t122 320zM561 1086q218 -4 303.5 -76t81.5 -165q-2 -39 -21.5 -131t-44 -202t-43 -200t-18.5 -127q0 -34 17.5 -51.5t48.5 -17.5q14 0 24 2t25 2l-21 -119
q-24 -3 -51.5 -5.5t-58.5 -3.5q-79 1 -114 33t-34 99q-43 -50 -126 -99t-197 -54q-186 3 -266 89t-79 236q4 170 98.5 241.5t229 89t252 22.5t162.5 40q21 23 29 55t8 64q-1 78 -61.5 105.5t-163.5 25.5q-136 1 -193.5 -43t-73.5 -141h-176q16 152 132 240.5t331 90.5z" />
    <glyph glyph-name="b" unicode="b" horiz-adv-x="1204" 
d="M258 411q1 -134 67.5 -211.5t190.5 -79.5q197 9 299 171t103 365q2 125 -62 203t-213 80q-191 -12 -288 -179.5t-97 -348.5zM549 -29q-147 4 -233 64t-119 142l-37 -176h-161l308 1458h172l-114 -532q54 75 136 121t204 47q218 -7 309 -137t88 -293q3 -234 -126 -455.5
t-427 -238.5z" />
    <glyph glyph-name="c" unicode="c" horiz-adv-x="1135" 
d="M471 128q141 7 222.5 94.5t97.5 171.5h180q-36 -177 -173.5 -297t-342.5 -126q-231 6 -326 136t-92 328q6 286 170 470t416 190q203 -2 304 -103.5t101 -281.5h-180q1 92 -54 161t-180 72q-196 -12 -294.5 -175.5t-98.5 -340.5q-1 -129 57.5 -212.5t192.5 -86.5z" />
    <glyph glyph-name="d" unicode="d" horiz-adv-x="1204" 
d="M926 890l123 569h168l-304 -1458h-155l24 143q-49 -72 -137.5 -121t-214.5 -52q-207 6 -302.5 131t-94.5 317q5 265 156.5 461t396.5 206q150 -4 223.5 -64.5t116.5 -131.5zM864 656q0 125 -66 201t-192 78q-201 -12 -295.5 -182t-93.5 -355q0 -125 64 -204t190 -82
q181 8 286 169t107 375z" />
    <glyph glyph-name="e" unicode="e" horiz-adv-x="1130" 
d="M1020 656q0 -37 -4.5 -82.5t-7.5 -89.5h-795q0 -203 67.5 -287t202.5 -81q126 2 202.5 66.5t100.5 162.5h172q-27 -176 -168.5 -273.5t-322.5 -100.5q-245 7 -339.5 139.5t-90.5 320.5q-2 254 132.5 453.5t424.5 210.5q236 -7 332.5 -139.5t93.5 -299.5zM836 624
q-10 229 -103.5 279t-154.5 40q-137 -5 -223.5 -101t-108.5 -218h590z" />
    <glyph glyph-name="f" unicode="f" horiz-adv-x="541" 
d="M225 1062q48 267 113 339t199 62q31 0 58.5 -2.5t55.5 -5.5l-28 -160q-19 3 -39 6t-35 3q-61 8 -86 -30t-62 -212h181l-25 -143h-184l-189 -919h-172l185 919h-144l25 143h147z" />
    <glyph glyph-name="g" unicode="g" horiz-adv-x="1200" 
d="M377 -442q-202 5 -296 99t-94 232h173q-2 -80 53.5 -129t192.5 -51q189 3 254.5 109.5t97.5 289.5q-50 -54 -127.5 -90t-179.5 -38q-206 5 -308 128t-102 323q0 232 135.5 441t409.5 223q140 -2 220.5 -60.5t119.5 -152.5l37 180h172q-182 -907 -239.5 -1122t-129.5 -255
q-82 -77 -185.5 -102.5t-203.5 -24.5zM225 411q1 -133 67 -209.5t187 -77.5q202 10 292.5 174.5t88.5 362.5q1 125 -62.5 202.5t-203.5 79.5q-198 -11 -284.5 -176t-84.5 -356z" />
    <glyph glyph-name="h" unicode="h" horiz-adv-x="1135" 
d="M676 935q-63 0 -130 -26t-124 -81q-69 -63 -118.5 -238.5t-131.5 -589.5h-173l304 1459h176l-119 -553q71 81 165 126t216 46q88 4 181.5 -39.5t101.5 -181.5q-6 -98 -67.5 -386.5t-104.5 -470.5h-176q40 178 101 461.5t67 350.5q1 54 -38 88t-130 35z" />
    <glyph glyph-name="i" unicode="i" horiz-adv-x="475" 
d="M303 1459h176l-45 -209h-172zM393 1062l-225 -1062h-173l222 1062h176z" />
    <glyph glyph-name="j" unicode="j" horiz-adv-x="479" 
d="M70 -365q-44 -38 -102.5 -49.5t-87.5 -11.5l-65 8l24 152q46 0 70 4t41 20q4 2 13 32t35.5 148t81.5 384.5t153 739.5h177q-202 -982 -255 -1204.5t-85 -222.5zM279 1254l40 205h177l-45 -205h-172z" />
    <glyph glyph-name="k" unicode="k" horiz-adv-x="1008" 
d="M479 1459l-192 -876l536 479h250l-459 -397l246 -665h-192l-197 542l-233 -205l-74 -337h-165l304 1459h176z" />
    <glyph glyph-name="l" unicode="l" horiz-adv-x="475" 
d="M0 0l311 1459h176l-311 -1459h-176z" />
    <glyph glyph-name="m" unicode="m" horiz-adv-x="1692" 
d="M1032 808q-63 -45 -102 -171.5t-148 -636.5h-180q16 81 45 207t56.5 258t48 231.5t22.5 123.5q2 41 -24.5 69.5t-102.5 29.5q-59 1 -116 -23.5t-113 -79.5q-69 -51 -109 -178.5t-145 -637.5h-173l222 1041h160l-41 -176q55 83 164.5 142.5t203.5 62.5q101 0 168 -48.5
t70 -143.5q75 79 180 134.5t189 57.5q114 1 192.5 -50.5t81.5 -170.5q-6 -92 -67.5 -379.5t-104.5 -469.5h-188q43 180 106.5 468.5t69.5 347.5q3 33 -23 66.5t-112 36.5q-56 0 -116.5 -29t-113.5 -82z" />
    <glyph glyph-name="n" unicode="n" horiz-adv-x="1126" 
d="M160 0h-169l222 1046h156l-33 -152q71 81 180.5 131.5t208.5 52.5q131 0 208 -55.5t79 -169.5q-2 -43 -21.5 -148.5t-47.5 -238.5t-55.5 -258t-43.5 -208h-176q40 178 98.5 458.5t64.5 349.5q0 64 -42 95.5t-125 31.5q-75 -1 -140 -31t-114 -80q-29 -24 -50.5 -56
t-46 -107.5t-60.5 -232.5t-93 -428z" />
    <glyph glyph-name="o" unicode="o" horiz-adv-x="1171" 
d="M1057 648q-1 -271 -149 -468.5t-437 -208.5q-226 6 -332.5 131.5t-105.5 312.5q1 266 149.5 467.5t431.5 212.5q246 -8 346 -142.5t97 -304.5zM594 943q-195 -13 -286.5 -186t-90.5 -346q-1 -131 61 -210t205 -81q207 12 299 185.5t90 363.5q1 121 -65 196.5t-213 77.5z
" />
    <glyph glyph-name="p" unicode="p" horiz-adv-x="1204" 
d="M82 -426h-165l296 1476h160l-29 -156q41 68 133 126t182 62q207 -4 314 -115.5t108 -281.5q-3 -314 -152.5 -510.5t-416.5 -203.5q-112 5 -196.5 64t-114.5 130zM655 939q-188 -10 -290 -172.5t-103 -359.5q0 -140 63.5 -215t186.5 -76q196 11 291 182t94 367
q1 111 -56.5 190.5t-185.5 83.5z" />
    <glyph glyph-name="q" unicode="q" horiz-adv-x="1204" 
d="M492 128q190 12 287.5 178t97.5 346q-1 133 -68 209.5t-191 77.5q-197 -9 -297 -169t-100 -363q-2 -125 60 -201t211 -78zM33 398q-3 213 126 445.5t427 251.5q158 -3 239 -66.5t113 -146.5l37 180h164l-316 -1488h-176l119 554q-54 -74 -134 -114.5t-202 -42.5
q-205 8 -301.5 135.5t-95.5 291.5z" />
    <glyph glyph-name="r" unicode="r" horiz-adv-x="664" 
d="M336 853q54 85 127.5 156.5t179.5 76.5q19 0 39 -2.5t39 -5.5l-41 -196q-16 0 -31 2t-31 2q-28 3 -83.5 -11t-124.5 -79q-31 -27 -53.5 -58.5t-45 -105.5t-57.5 -222.5t-90 -409.5h-169l222 1062h168z" />
    <glyph glyph-name="s" unicode="s" horiz-adv-x="1004" 
d="M-17 366h164q5 -165 90 -216.5t197 -46.5q111 2 164 49t53 119q-6 82 -86 127t-184.5 86t-183 110t-82.5 198q2 137 107.5 219t289.5 84q212 -3 300 -104.5t85 -264.5h-164q2 105 -52.5 164.5t-184.5 60.5q-105 -1 -157 -43t-52 -108q4 -70 84 -112t185.5 -84t185 -111.5
t85.5 -192.5q-2 -150 -112 -241.5t-305 -95.5q-205 -1 -315 93t-112 310z" />
    <glyph glyph-name="t" unicode="t" horiz-adv-x="541" 
d="M283 1349h176l-62 -287h185l-29 -143h-188q-17 -72 -41.5 -185.5t-50 -232.5t-43 -208t-17.5 -112q3 -44 33 -57t57 -12q22 0 50.5 3t56.5 9l-29 -132q-28 -8 -59 -14t-68 -7q-119 2 -168.5 45.5t-48.5 123.5q0 33 17.5 129.5t44 219t52 239.5t42.5 191h-156l29 143h155z
" />
    <glyph glyph-name="u" unicode="u" horiz-adv-x="1126" 
d="M836 0h-160l37 161q-74 -79 -180 -127t-214 -50q-184 7 -238 79t-48 139q0 39 19.5 145.5t48 241.5t57 263t47.5 210h176q-16 -80 -44 -203t-55.5 -253t-46 -227t-18.5 -124q-1 -59 38.5 -94.5t133.5 -36.5q92 3 156 40.5t98 74.5q31 30 53.5 64t45 108.5t56 228.5
t87.5 422h176z" />
    <glyph glyph-name="v" unicode="v" horiz-adv-x="942" 
d="M340 181l451 881h192l-573 -1062h-197l-168 1062h172z" />
    <glyph glyph-name="w" unicode="w" horiz-adv-x="1499" 
d="M57 1062h168l99 -840l372 840h193l45 -848l426 848h188l-569 -1062h-184l-45 816l-381 -816h-176z" />
    <glyph glyph-name="x" unicode="x" horiz-adv-x="901" 
d="M770 0h-192l-189 394l-323 -394h-210l459 550l-258 512h193l184 -381l307 381h205l-434 -528z" />
    <glyph glyph-name="y" unicode="y" horiz-adv-x="942" 
d="M45 1062h188l119 -905l443 905h196q-289 -539 -446.5 -847.5t-238.5 -449t-139 -176t-147 -31.5q-20 1 -48 6t-55 10l41 156q19 -6 34 -9t33 -4q46 -4 86 38t110 184z" />
    <glyph glyph-name="z" unicode="z" horiz-adv-x="909" 
d="M176 153h606l-32 -153h-833l29 136l697 770h-561l29 156h802l-28 -131z" />
    <glyph glyph-name="braceleft" unicode="{" 
d="M618 1160v-397q0 -85 -49.5 -151t-150.5 -87q98 -20 149 -89.5t51 -160.5v-381q1 -85 45 -124.5t119 -39.5h78v-144h-127q-144 3 -213 73t-69 181v390q-1 108 -58 165t-160 57h-65v143h70q102 0 157 58.5t56 174.5v365q1 135 75 202.5t215 67.5h119v-143h-69
q-81 0 -126.5 -41t-46.5 -119z" />
    <glyph glyph-name="bar" unicode="|" 
d="M582 1549v-2032h-144v2032h144z" />
    <glyph glyph-name="braceright" unicode="}" 
d="M401 763v397q-1 78 -46 119t-126 41h-69v143h119q142 0 216 -67.5t74 -202.5v-365q1 -116 56 -174.5t157 -58.5h70v-143h-66q-102 0 -159 -57t-58 -165v-390q0 -111 -69 -181t-213 -73h-127v144h78q75 0 118.5 39.5t44.5 124.5v381q0 91 51 160.5t150 89.5
q-101 21 -151 87t-50 151z" />
    <glyph glyph-name="asciitilde" unicode="~" horiz-adv-x="2040" 
d="M762 1377q108 -2 172.5 -42t108.5 -93t94.5 -94t132.5 -45t139.5 51.5t60.5 222.5h148q-4 -225 -102 -322t-246 -95q-111 4 -175.5 45t-109.5 95t-94 95t-129 43q-83 4 -140.5 -53t-60.5 -225h-147q4 225 102 322t246 95z" />
    <glyph glyph-name="exclamdown" unicode="&#xa1;" horiz-adv-x="655" 
d="M369 1459h213l-45 -217h-218zM352 1091h55h52l-185 -1091h-200z" />
    <glyph glyph-name="cent" unicode="&#xa2;" horiz-adv-x="1118" 
d="M463 -29l-82 4l-70 -229h-82l74 242q-155 36 -220 156t-63 312q4 231 153.5 428.5t395.5 210.5h74l62 192h81l-61 -205q141 -32 214 -129.5t73 -242.5h-176q2 70 -33.5 132.5t-126.5 92.5l-246 -807h53q101 3 181.5 79.5t113.5 186.5h176q-39 -185 -176.5 -301.5
t-314.5 -121.5zM356 149l242 794q-189 -10 -290.5 -169t-102.5 -347q1 -115 42 -187t109 -91z" />
    <glyph glyph-name="sterling" unicode="&#xa3;" horiz-adv-x="1118" 
d="M963 202l-54 -206q-35 -15 -79 -25.5t-85 -11.5q-100 6 -204.5 38t-229.5 37q-59 -1 -119.5 -19t-113.5 -48l-37 169q145 120 182 219t31 179q0 37 -3.5 64.5t-4.5 45.5h-185l21 98h151q-12 54 -21.5 119.5t-10.5 122.5q-2 159 113.5 309.5t365.5 161.5
q196 -5 291 -103.5t94 -232.5q0 -34 -4.5 -71.5t-7.5 -71.5h-181q7 30 10 57.5t3 57.5q1 90 -46.5 148t-162.5 60q-147 -5 -215.5 -102t-67.5 -225q0 -45 3.5 -107.5t13.5 -122.5h356l-21 -98h-323q0 -18 2 -38t2 -36q1 -99 -52 -209t-169 -225q47 17 104 30.5t105 14.5
q95 -4 179.5 -28.5t164.5 -28.5q68 0 111.5 19t93.5 59z" />
    <glyph glyph-name="currency" unicode="&#xa4;" horiz-adv-x="1237" 
d="M315 878q3 -129 88.5 -215t214.5 -89q129 3 215 89t89 215q-3 129 -89 214.5t-215 88.5q-129 -3 -214.5 -88.5t-88.5 -214.5zM618 464q-75 0 -142 21.5t-111 64.5l-205 -205l-78 78l205 205q-49 51 -68 121.5t-18 128.5q-1 57 18 127.5t68 121.5l-205 205l78 78l205 -205
q44 43 111 64.5t142 21.5q76 0 143 -21.5t111 -64.5l205 205l78 -78l-205 -205q49 -51 68 -121.5t18 -127.5q1 -58 -18 -128.5t-68 -121.5l205 -205l-78 -78l-205 205q-44 -43 -111 -64.5t-143 -21.5z" />
    <glyph glyph-name="yen" unicode="&#xa5;" horiz-adv-x="1163" 
d="M1155 783h-360l-99 -139h426l-16 -86h-475l-111 -558h-180l111 558h-468l16 86h431l-57 139h-344l16 86h295l-197 512h181l249 -655l439 655h196l-352 -512h315z" />
    <glyph glyph-name="brokenbar" unicode="&#xa6;" 
d="M438 1418h144v-749h-144v749zM438 402h144v-750h-144v750z" />
    <glyph glyph-name="section" unicode="&#xa7;" 
d="M213 112q1 -69 46 -112t122 -45q86 2 131 45t45 112q-4 69 -75.5 132.5t-166 128t-165 141.5t-72.5 171q3 98 63.5 168t149.5 111q-42 48 -54.5 97.5t-11.5 106.5q1 114 88.5 208t251.5 100q180 -2 257 -89t75 -239h-180q1 80 -35.5 125.5t-116.5 46.5q-79 -1 -119 -40
t-40 -107q2 -68 72.5 -128.5t164.5 -124t166 -146.5t76 -200q-1 -89 -56 -161.5t-149 -116.5q36 -42 47 -88t10 -100q-2 -122 -97.5 -216.5t-254.5 -100.5q-175 3 -263.5 89t-88.5 232h180zM389 882q-67 -35 -99 -70.5t-32 -89.5q-3 -63 69 -123.5t251 -204.5
q73 33 104.5 71t30.5 93q-1 74 -86.5 144t-237.5 180z" />
    <glyph glyph-name="dieresis" unicode="&#xa8;" 
d="M414 1467h180l-41 -204h-180zM881 1263h-181l41 204h181z" />
    <glyph glyph-name="copyright" unicode="&#xa9;" horiz-adv-x="1700" 
d="M115 710q7 307 210 519.5t515 221.5q339 -11 538 -229t203 -508q-5 -288 -204 -501t-533 -225q-344 16 -535 243t-194 479zM209 718q13 -312 208 -475t423 -164q279 7 460 188.5t187 446.5q-9 298 -196.5 469t-442.5 174q-282 -7 -458 -189t-181 -450zM459 722
q0 178 97 307t296 135q156 -5 245 -87t91 -179h-144q-3 69 -60.5 113.5t-139.5 46.5q-117 -3 -173.5 -97t-56.5 -247q2 -174 67.5 -253.5t166.5 -78.5q88 2 145.5 52.5t59.5 123.5h147q-4 -120 -107.5 -202t-252.5 -85q-172 2 -275 121t-106 330z" />
    <glyph glyph-name="ordfeminine" unicode="&#xaa;" horiz-adv-x="807" 
d="M123 914q1 -50 37 -83.5t98 -34.5q78 -5 160 53t114 246q-138 -33 -269 -38.5t-140 -142.5zM422 1480q187 -6 240 -65.5t47 -102.5q-6 -68 -49.5 -249t-49.5 -218q0 -19 15.5 -33.5t46.5 -15.5l28 4l-20 -82q-19 -3 -39.5 -5.5t-42.5 -2.5q-60 0 -83.5 22.5t-22.5 71.5
q-35 -36 -99 -72t-147 -39q-131 1 -193 62t-62 164q4 147 89.5 192t201 48t202.5 19.5t94 104.5q3 33 -31 62.5t-141 31.5q-108 0 -148.5 -32t-52.5 -99h-131q12 106 98.5 169t249.5 65zM741 587v-107h-750v107h750z" />
    <glyph glyph-name="guillemotleft" unicode="&#xab;" horiz-adv-x="905" 
d="M303 189l-270 275l33 160l385 241l-37 -172l-258 -164l180 -180zM713 189l-271 275l33 160l385 241l-37 -172l-258 -164l180 -180z" />
    <glyph glyph-name="logicalnot" unicode="&#xac;" horiz-adv-x="1700" 
d="M1446 849v-496h-135v361h-1057v135h1192z" />
    <glyph glyph-name="registered" unicode="&#xae;" horiz-adv-x="1700" 
d="M901 767q58 0 105.5 34t50.5 101q0 68 -44.5 105.5t-135.5 38.5h-168v-279h192zM115 710q7 307 210 519.5t515 221.5q339 -11 538 -229t203 -508q-5 -288 -204 -501t-533 -225q-344 16 -535 243t-194 479zM209 718q13 -312 208 -475t423 -164q279 7 460 188.5t187 446.5
q-9 298 -196.5 469t-442.5 174q-282 -7 -458 -189t-181 -450zM553 1144h377q125 -1 202.5 -63t79.5 -171q-2 -94 -55.5 -145t-132.5 -72l180 -377h-168l-168 357h-159v-357h-156v828z" />
    <glyph glyph-name="overscore" unicode="&#xaf;" 
d="M0 1406v143h1016v-143h-1016z" />
    <glyph glyph-name="degree" unicode="&#xb0;" horiz-adv-x="672" 
d="M139 1156q1 -76 50.5 -132.5t142.5 -59.5q93 3 144 61t52 135q-1 77 -53.5 133.5t-142.5 59.5q-90 -3 -141 -61.5t-52 -135.5zM332 1443q131 -4 207.5 -87.5t78.5 -195.5q-1 -112 -77.5 -197t-212.5 -90q-136 5 -207.5 92.5t-71.5 194.5q2 106 77 192t206 91z" />
    <glyph glyph-name="plusminus" unicode="&#xb1;" horiz-adv-x="1700" 
d="M782 841v340h136v-340h528v-135h-528v-340h-136v340h-528v135h528zM254 161h1192v-135h-1192v135z" />
    <glyph glyph-name="twosuperior" unicode="&#xb2;" horiz-adv-x="737" 
d="M397 1406q131 -1 206 -63t77 -170q-4 -103 -71.5 -172.5t-163 -123t-181.5 -106.5t-125 -123h471l-20 -94h-582q4 127 85 207t188.5 139.5t188.5 119.5t87 148q0 71 -42 105.5t-122 34.5q-84 -2 -135.5 -52t-52.5 -129h-123q0 90 78 181t237 98z" />
    <glyph glyph-name="threesuperior" unicode="&#xb3;" horiz-adv-x="737" 
d="M422 1033q52 1 98 41t49 111q0 62 -39.5 96.5t-119.5 34.5q-87 -3 -135.5 -54t-49.5 -118h-119q0 92 78.5 174t229.5 88q135 -2 204.5 -61t69.5 -156q-1 -83 -44 -132t-112 -73q42 -23 72 -63.5t31 -112.5q-3 -120 -94.5 -198t-241.5 -81q-152 -2 -216.5 68t-62.5 231
h119q0 -128 40 -168t120 -36q126 3 173 62.5t44 133.5q-2 51 -42.5 88t-100.5 39h-70l21 86h98z" />
    <glyph glyph-name="acute" unicode="&#xb4;" 
d="M705 1549h188l-299 -344h-119z" />
    <glyph glyph-name="mu" unicode="&#xb5;" horiz-adv-x="1147" 
d="M700 116q-34 -62 -103 -94.5t-171 -33.5q-86 1 -147.5 30t-106.5 81l-106 -525h-174l313 1488h176q-16 -70 -40 -173.5t-47.5 -214t-39.5 -199.5t-16 -130q0 -110 49 -161.5t147 -51.5q54 -2 100.5 9.5t100.5 64.5q24 24 44.5 57t45.5 112t62.5 241.5t97.5 445.5h172
q-29 -127 -58.5 -268.5t-57.5 -267.5t-44 -212t-16 -104q-3 -37 13 -55.5t89 -18.5l-25 -136q-21 -5 -46 -8t-56 -4q-68 1 -107 31t-49 97z" />
    <glyph glyph-name="paragraph" unicode="&#xb6;" 
d="M831 0h-106v1381h-180v-1381h-107v775q-176 4 -273.5 103t-98.5 241q2 148 101 244.5t267 99.5h516v-82h-119v-1381z" />
    <glyph glyph-name="periodcentered" unicode="&#xb7;" horiz-adv-x="1028" 
d="M512 550q-51 2 -88 39t-39 88q2 51 39 88t88 39q51 -2 88 -39t39 -88q-2 -51 -39 -88t-88 -39z" />
    <glyph glyph-name="cedilla" unicode="&#xb8;" 
d="M446 -283q5 53 -29 72.5t-167 17.5l61 189h74l-33 -102q141 -1 189 -48t45 -120q0 -89 -59 -142t-171 -55q-75 2 -153 16.5t-137 32.5l32 94q51 -12 109.5 -27.5t111.5 -17.5q43 0 83.5 18.5t43.5 71.5z" />
    <glyph glyph-name="onesuperior" unicode="&#xb9;" horiz-adv-x="737" 
d="M172 1246q98 0 197 38.5t127 121.5h82l-197 -852h-119l152 643q-36 -7 -100 -17.5t-162 -11.5z" />
    <glyph glyph-name="ordmasculine" unicode="&#xba;" horiz-adv-x="877" 
d="M786 587v-107h-761v107h761zM360 693q-176 3 -256 89.5t-79 222.5q0 177 110.5 321.5t331.5 153.5q155 -3 239 -88.5t85 -223.5q0 -183 -109 -325t-322 -150zM651 1185q0 84 -47.5 135.5t-148.5 52.5q-147 -6 -219 -121t-72 -260q1 -98 52 -147t140 -49q161 8 229 130
t66 259z" />
    <glyph glyph-name="guillemotright" unicode="&#xbb;" horiz-adv-x="905" 
d="M385 189l37 172l258 164l-180 181l32 159l271 -274l-33 -160zM123 865l270 -274l-33 -160l-382 -242l34 172l258 164l-180 181z" />
    <glyph glyph-name="onequarter" unicode="&#xbc;" horiz-adv-x="1749" 
d="M164 1250q120 2 197 37.5t114 114.5h78l-188 -795h-115l147 602q-50 -15 -117 -21.5t-133 -6.5zM1380 1422l-897 -1463h-118l897 1463h118zM1671 767l-115 -487h127l-20 -82h-131l-45 -198h-111l49 198h-381l21 86l508 483h98zM1176 280h266l86 344z" />
    <glyph glyph-name="onehalf" unicode="&#xbd;" horiz-adv-x="1749" 
d="M1626 83l-20 -83h-557q16 130 96 205t180 124t174 103t78 147q-1 62 -42 94.5t-110 32.5q-86 -1 -132 -47.5t-52 -124.5h-115q11 118 89 187t215 71q126 -1 195.5 -59.5t70.5 -158.5q-4 -102 -74 -167.5t-163 -114.5t-172 -96t-103 -113h442zM475 1402h78l-188 -795h-115
l147 602q-50 -15 -117 -21.5t-133 -6.5l17 69q120 2 197 37.5t114 114.5zM1380 1422l-897 -1463h-118l897 1463h118z" />
    <glyph glyph-name="threequarters" unicode="&#xbe;" horiz-adv-x="1749" 
d="M131 865l-4 -65q0 -54 38.5 -90t121.5 -37q87 1 142.5 46.5t57.5 129.5q-1 59 -42.5 92.5t-104.5 34.5h-53l20 78h70q77 1 120 40.5t44 102.5q0 53 -38 85.5t-118 33.5q-77 -2 -120 -46.5t-52 -113.5h-111q10 107 84.5 175.5t206.5 70.5q114 -1 187 -53t75 -148
q-1 -76 -41 -122.5t-106 -69.5q54 -26 74.5 -70t19.5 -94q-3 -121 -93.5 -189t-225.5 -69q-122 2 -193.5 55.5t-73.5 140.5q0 22 2 43t2 39h111zM1380 1422l-897 -1463h-118l897 1463h118zM1573 767h98l-115 -487h127l-20 -82h-131l-45 -198h-111l49 198h-381l21 86z
M1442 280l86 344l-352 -344h266z" />
    <glyph glyph-name="questiondown" unicode="&#xbf;" horiz-adv-x="1069" 
d="M549 1431h205l-45 -209h-201zM676 1058q-21 -172 -98.5 -258t-171 -139.5t-163 -125t-71.5 -214.5q1 -86 63 -144.5t179 -60.5q140 5 209 94.5t77 208.5h177q-7 -187 -124 -318t-339 -138q-202 4 -313 99.5t-114 245.5q2 189 76 284t175.5 149.5t180.5 121t89 195.5h168z
" />
    <glyph glyph-name="Agrave" unicode="&#xc0;" horiz-adv-x="1233" 
d="M930 0l-66 411h-585l-218 -411h-205l787 1459h242l241 -1459h-196zM733 1267l-368 -688h475zM520 1955h197l209 -344h-107z" />
    <glyph glyph-name="Aacute" unicode="&#xc1;" horiz-adv-x="1233" 
d="M930 0l-66 411h-585l-218 -411h-205l787 1459h242l241 -1459h-196zM733 1267l-368 -688h475zM872 1955h189l-299 -344h-119z" />
    <glyph glyph-name="Acircumflex" unicode="&#xc2;" horiz-adv-x="1233" 
d="M930 0l-66 411h-585l-218 -411h-205l787 1459h242l241 -1459h-196zM733 1267l-368 -688h475zM483 1611l262 344h185l135 -344h-107l-135 217l-221 -217h-119z" />
    <glyph glyph-name="Atilde" unicode="&#xc3;" horiz-adv-x="1233" 
d="M930 0l-66 411h-585l-218 -411h-205l787 1459h242l241 -1459h-196zM840 579l-107 688l-368 -688h475zM909 1693q-63 3 -104.5 22.5t-108.5 22.5q-31 -1 -49.5 -23.5t-28.5 -54.5h-98q16 85 65 142t132 59q67 -3 118 -22.5t91 -22.5q39 1 56 21.5t26 51.5h102
q-22 -96 -73 -146t-128 -50z" />
    <glyph glyph-name="Adieresis" unicode="&#xc4;" horiz-adv-x="1233" 
d="M864 411h-585l-218 -411h-205l787 1459h242l241 -1459h-196zM840 579l-107 688l-368 -688h475zM762 1873l-41 -205h-180l41 205h180zM1090 1873l-41 -205h-181l41 205h181z" />
    <glyph glyph-name="Aring" unicode="&#xc5;" horiz-adv-x="1233" 
d="M778 1619q56 2 87.5 36t31.5 79q-1 45 -33.5 78.5t-85.5 35.5q-52 -2 -82.5 -35.5t-31.5 -78.5q1 -45 31.5 -79t82.5 -36zM930 0l-66 411h-585l-218 -411h-205l787 1459h242l241 -1459h-196zM733 1267l-368 -688h475zM557 1738q1 83 60 148t161 69q103 -3 164 -66
t62 -151q-1 -87 -60.5 -154.5t-165.5 -71.5q-108 4 -164.5 73t-56.5 153z" />
    <glyph glyph-name="AE" unicode="&#xc6;" horiz-adv-x="1905" 
d="M1901 1459l-33 -172h-692l-99 -450h672l-33 -168h-672l-106 -496h745l-36 -173h-934l90 411h-529l-245 -411h-206l886 1459h1192zM991 1295h-188l-430 -716h463z" />
    <glyph glyph-name="Ccedilla" unicode="&#xc7;" horiz-adv-x="1442" 
d="M86 566q-2 324 183 613t583 309q273 -7 405.5 -157.5t131.5 -354.5h-193q2 132 -84 233.5t-281 106.5q-276 -14 -412 -240.5t-136 -492.5q-1 -212 94.5 -336t294.5 -127q175 3 290.5 112.5t167.5 284.5h185q-28 -210 -206 -380.5t-425 -181.5l-16 -61q127 1 181 -41.5
t52 -126.5q0 -87 -59.5 -140.5t-173.5 -56.5q-89 2 -160.5 16.5t-126.5 32.5l37 94q55 -17 108.5 -28.5t108.5 -12.5q56 0 89.5 17.5t37.5 64.5q4 55 -32.5 75.5t-164.5 18.5l49 152q-237 6 -380.5 172t-147.5 435z" />
    <glyph glyph-name="Egrave" unicode="&#xc8;" horiz-adv-x="1200" 
d="M721 1955l209 -344h-107l-299 344h197zM1012 669h-676l-107 -496h742l-33 -173h-934l311 1459h881l-33 -172h-696l-94 -450h671z" />
    <glyph glyph-name="Eacute" unicode="&#xc9;" horiz-adv-x="1200" 
d="M1012 669h-676l-107 -496h742l-33 -173h-934l311 1459h881l-33 -172h-696l-94 -450h671zM1065 1955l-299 -344h-119l230 344h188z" />
    <glyph glyph-name="Ecircumflex" unicode="&#xca;" horiz-adv-x="1200" 
d="M487 1611l263 344h184l135 -344h-106l-136 217l-221 -217h-119zM1012 669h-676l-107 -496h742l-33 -173h-934l311 1459h881l-33 -172h-696l-94 -450h671z" />
    <glyph glyph-name="Edieresis" unicode="&#xcb;" horiz-adv-x="1200" 
d="M766 1873l-41 -205h-180l41 205h180zM1053 1668h-181l41 205h181zM1012 669h-676l-107 -496h742l-33 -173h-934l311 1459h881l-33 -172h-696l-94 -450h671z" />
    <glyph glyph-name="Igrave" unicode="&#xcc;" horiz-adv-x="532" 
d="M385 1955l209 -344h-107l-299 344h197zM209 0h-201l311 1459h201z" />
    <glyph glyph-name="Iacute" unicode="&#xcd;" horiz-adv-x="532" 
d="M541 1955h188l-299 -344h-119zM209 0h-201l311 1459h201z" />
    <glyph glyph-name="Icircumflex" unicode="&#xce;" horiz-adv-x="532" 
d="M520 1459l-311 -1459h-201l311 1459h201zM152 1611l262 344h184l135 -344h-106l-135 217l-222 -217h-118z" />
    <glyph glyph-name="Idieresis" unicode="&#xcf;" horiz-adv-x="532" 
d="M520 1459l-311 -1459h-201l311 1459h201zM250 1873h180l-41 -205h-180zM758 1873l-41 -205h-180l41 205h180z" />
    <glyph glyph-name="Eth" unicode="&#xd0;" horiz-adv-x="1462" 
d="M614 161q305 16 423.5 240.5t113.5 467.5q4 202 -88 313t-322 113h-254l-102 -458h381l-25 -123h-385l-118 -553h376zM328 1459h463q326 -8 450.5 -181t118.5 -421q0 -352 -178 -599t-531 -258h-639l156 714h-168l25 123h168z" />
    <glyph glyph-name="Ntilde" unicode="&#xd1;" horiz-adv-x="1425" 
d="M1229 1459h188l-311 -1459h-94h-90l-484 1152l-245 -1152h-189l311 1459h189l479 -1159zM1024 1693q-64 3 -105 22.5t-108 22.5q-31 -1 -50 -23.5t-28 -54.5h-98q15 85 64 142t132 59q68 -3 119 -22.5t90 -22.5q39 1 56.5 21.5t25.5 51.5h103q-22 -96 -73 -146t-128 -50z
" />
    <glyph glyph-name="Ograve" unicode="&#xd2;" horiz-adv-x="1565" 
d="M676 1955h196l209 -344h-106zM864 1332q-297 -17 -441.5 -253.5t-143.5 -495.5q-1 -200 101 -325.5t325 -129.5q272 14 419.5 242.5t149.5 507.5q1 189 -99 319t-311 135zM881 1500q292 -6 442.5 -178.5t151.5 -439.5q-4 -378 -216.5 -642t-582.5 -277
q-314 11 -457 192.5t-141 418.5q2 343 209.5 626t593.5 300z" />
    <glyph glyph-name="Oacute" unicode="&#xd3;" horiz-adv-x="1565" 
d="M1217 1955l-299 -344h-119l229 344h189zM864 1332q-297 -17 -441.5 -253.5t-143.5 -495.5q-1 -200 101 -325.5t325 -129.5q272 14 419.5 242.5t149.5 507.5q1 189 -99 319t-311 135zM881 1500q292 -6 442.5 -178.5t151.5 -439.5q-4 -378 -216.5 -642t-582.5 -277
q-314 11 -457 192.5t-141 418.5q2 343 209.5 626t593.5 300z" />
    <glyph glyph-name="Ocircumflex" unicode="&#xd4;" horiz-adv-x="1565" 
d="M864 1332q-297 -17 -441.5 -253.5t-143.5 -495.5q-1 -200 101 -325.5t325 -129.5q272 14 419.5 242.5t149.5 507.5q1 189 -99 319t-311 135zM881 1500q292 -6 442.5 -178.5t151.5 -439.5q-4 -378 -216.5 -642t-582.5 -277q-314 11 -457 192.5t-141 418.5q2 343 209.5 626
t593.5 300zM639 1611l262 344h184l136 -344h-107l-135 217l-221 -217h-119z" />
    <glyph glyph-name="Otilde" unicode="&#xd5;" horiz-adv-x="1565" 
d="M864 1332q-297 -17 -441.5 -253.5t-143.5 -495.5q-1 -200 101 -325.5t325 -129.5q272 14 419.5 242.5t149.5 507.5q1 189 -99 319t-311 135zM881 1500q292 -6 442.5 -178.5t151.5 -439.5q-4 -378 -216.5 -642t-582.5 -277q-314 11 -457 192.5t-141 418.5q2 343 209.5 626
t593.5 300zM1266 1889q-22 -96 -73 -146t-128 -50q-64 3 -105 22.5t-108 22.5q-31 -1 -50 -23.5t-28 -54.5h-98q15 85 64 142t132 59q68 -3 119 -22.5t90 -22.5q39 1 56.5 21.5t25.5 51.5h103z" />
    <glyph glyph-name="Odieresis" unicode="&#xd6;" horiz-adv-x="1565" 
d="M737 1873h181l-41 -205h-181zM1204 1668h-180l41 205h180zM864 1332q-297 -17 -441.5 -253.5t-143.5 -495.5q-1 -200 101 -325.5t325 -129.5q272 14 419.5 242.5t149.5 507.5q1 189 -99 319t-311 135zM881 1500q292 -6 442.5 -178.5t151.5 -439.5q-4 -378 -216.5 -642
t-582.5 -277q-314 11 -457 192.5t-141 418.5q2 343 209.5 626t593.5 300z" />
    <glyph glyph-name="multiply" unicode="&#xd7;" horiz-adv-x="1700" 
d="M385 1168l471 -471l471 471l94 -94l-471 -471l471 -471l-94 -94l-471 471l-471 -471l-94 94l471 471l-471 471z" />
    <glyph glyph-name="Oslash" unicode="&#xd8;" horiz-adv-x="1565" 
d="M274 583q0 -113 15 -171t43 -104l819 897q-59 61 -133.5 90t-161.5 29q-300 -18 -441.5 -255.5t-140.5 -485.5zM692 124q254 6 415.5 211t166.5 534q0 59 -16.5 137t-53.5 134l-819 -897q43 -59 113 -89t194 -30zM872 1500q146 -1 243.5 -40t166.5 -107l127 139l70 -57
l-136 -148q57 -65 91.5 -167.5t35.5 -237.5q-8 -418 -233 -665t-565 -254q-141 1 -242 34t-168 98l-127 -132l-65 59l131 143q-61 80 -92 175t-31 234q1 341 201 625t593 301z" />
    <glyph glyph-name="Ugrave" unicode="&#xd9;" horiz-adv-x="1405" 
d="M598 136q69 -1 149 21.5t146 85.5q52 24 101 214t214 1002h189q-176 -873 -233 -1081.5t-132 -253.5q-69 -69 -183 -113.5t-259 -47.5q-241 5 -368 116t-128 287q0 49 25.5 183t62.5 306t74 335t59 269h189q-25 -104 -60.5 -266t-71.5 -333t-60.5 -305t-24.5 -181
q2 -117 85 -177.5t226 -60.5zM815 1955l209 -344h-106l-300 344h197z" />
    <glyph glyph-name="Uacute" unicode="&#xda;" horiz-adv-x="1405" 
d="M1159 1955l-299 -344h-119l230 344h188zM598 136q69 -1 149 21.5t146 85.5q52 24 101 214t214 1002h189q-176 -873 -233 -1081.5t-132 -253.5q-69 -69 -183 -113.5t-259 -47.5q-241 5 -368 116t-128 287q0 49 25.5 183t62.5 306t74 335t59 269h189q-25 -104 -60.5 -266
t-71.5 -333t-60.5 -305t-24.5 -181q2 -117 85 -177.5t226 -60.5z" />
    <glyph glyph-name="Ucircumflex" unicode="&#xdb;" horiz-adv-x="1405" 
d="M893 243q52 24 101 214t214 1002h189q-176 -873 -233 -1081.5t-132 -253.5q-69 -69 -183 -113.5t-259 -47.5q-241 5 -368 116t-128 287q0 49 25.5 183t62.5 306t74 335t59 269h189q-25 -104 -60.5 -266t-71.5 -333t-60.5 -305t-24.5 -181q2 -117 85 -177.5t226 -60.5
q69 -1 149 21.5t146 85.5zM844 1955h184l135 -344h-106l-135 217l-222 -217h-118z" />
    <glyph glyph-name="Udieresis" unicode="&#xdc;" horiz-adv-x="1405" 
d="M893 243q52 24 101 214t214 1002h189q-176 -873 -233 -1081.5t-132 -253.5q-69 -69 -183 -113.5t-259 -47.5q-241 5 -368 116t-128 287q0 49 25.5 183t62.5 306t74 335t59 269h189q-25 -104 -60.5 -266t-71.5 -333t-60.5 -305t-24.5 -181q2 -117 85 -177.5t226 -60.5
q69 -1 149 21.5t146 85.5zM680 1873h180l-41 -205h-180zM1147 1668h-180l41 205h180z" />
    <glyph glyph-name="Yacute" unicode="&#xdd;" horiz-adv-x="1049" 
d="M1196 1459l-614 -889l-115 -570h-193l127 603l-331 856h200l254 -680l455 680h107h110zM991 1955l-299 -344h-119l230 344h188z" />
    <glyph glyph-name="Thorn" unicode="&#xde;" horiz-adv-x="1229" 
d="M508 1459l-62 -282h320q194 -1 291.5 -96.5t97.5 -268.5q-1 -209 -144 -315.5t-417 -106.5h-315l-82 -390h-189l311 1459h189zM750 1013h-336l-99 -459h303q165 -1 256.5 61.5t92.5 196.5q2 93 -45.5 146.5t-171.5 54.5z" />
    <glyph glyph-name="germandbls" unicode="&#xdf;" horiz-adv-x="1139" 
d="M885 1123q1 82 -49.5 134.5t-171.5 54.5q-38 1 -85.5 -11.5t-91.5 -54.5q-39 -10 -88.5 -204t-230.5 -1037h-173q183 892 239 1102t118 242q66 64 150.5 93.5t169.5 29.5q210 -4 304.5 -103t92.5 -242q-1 -129 -63 -213.5t-170 -121.5q88 -59 126 -131.5t37 -192.5
q-6 -210 -164.5 -346t-392.5 -142q-40 1 -74.5 8.5t-56.5 16.5l37 148q32 -10 65 -13.5t58 -3.5q142 3 237 96.5t99 243.5q1 96 -54.5 171t-183.5 79h-102l33 139h82q161 3 232.5 75.5t70.5 182.5z" />
    <glyph glyph-name="agrave" unicode="&#xe0;" horiz-adv-x="1077" 
d="M164 288q0 -76 46 -123.5t138 -48.5q141 -1 239 102t122 320q-97 -31 -193 -38t-175 -16.5t-128 -51.5t-49 -144zM98 755q16 152 132 240.5t331 90.5q218 -4 303.5 -76t81.5 -165q-2 -39 -21.5 -131t-44 -202t-43 -200t-18.5 -127q0 -34 17.5 -51.5t48.5 -17.5q14 0 24 2
t25 2l-21 -119q-24 -3 -51.5 -5.5t-58.5 -3.5q-79 1 -114 33t-34 99q-43 -50 -126 -99t-197 -54q-186 3 -266 89t-79 236q4 170 98.5 241.5t229 89t252 22.5t162.5 40q21 23 29 55t8 64q-1 78 -61.5 105.5t-163.5 25.5q-136 1 -193.5 -43t-73.5 -141h-176zM557 1549
l209 -344h-107l-299 344h197z" />
    <glyph glyph-name="aacute" unicode="&#xe1;" horiz-adv-x="1077" 
d="M164 288q0 -76 46 -123.5t138 -48.5q141 -1 239 102t122 320q-97 -31 -193 -38t-175 -16.5t-128 -51.5t-49 -144zM98 755q16 152 132 240.5t331 90.5q218 -4 303.5 -76t81.5 -165q-2 -39 -21.5 -131t-44 -202t-43 -200t-18.5 -127q0 -34 17.5 -51.5t48.5 -17.5q14 0 24 2
t25 2l-21 -119q-24 -3 -51.5 -5.5t-58.5 -3.5q-79 1 -114 33t-34 99q-43 -50 -126 -99t-197 -54q-186 3 -266 89t-79 236q4 170 98.5 241.5t229 89t252 22.5t162.5 40q21 23 29 55t8 64q-1 78 -61.5 105.5t-163.5 25.5q-136 1 -193.5 -43t-73.5 -141h-176zM901 1549
l-299 -344h-119l230 344h188z" />
    <glyph glyph-name="acircumflex" unicode="&#xe2;" horiz-adv-x="1077" 
d="M164 288q0 -76 46 -123.5t138 -48.5q141 -1 239 102t122 320q-97 -31 -193 -38t-175 -16.5t-128 -51.5t-49 -144zM98 755q16 152 132 240.5t331 90.5q218 -4 303.5 -76t81.5 -165q-2 -39 -21.5 -131t-44 -202t-43 -200t-18.5 -127q0 -34 17.5 -51.5t48.5 -17.5q14 0 24 2
t25 2l-21 -119q-24 -3 -51.5 -5.5t-58.5 -3.5q-79 1 -114 33t-34 99q-43 -50 -126 -99t-197 -54q-186 3 -266 89t-79 236q4 170 98.5 241.5t229 89t252 22.5t162.5 40q21 23 29 55t8 64q-1 78 -61.5 105.5t-163.5 25.5q-136 1 -193.5 -43t-73.5 -141h-176zM586 1549h184
l135 -344h-106l-135 217l-222 -217h-118z" />
    <glyph glyph-name="atilde" unicode="&#xe3;" horiz-adv-x="1077" 
d="M950 1484q-21 -96 -72 -146.5t-128 -50.5q-64 3 -105.5 22.5t-107.5 22.5q-31 -1 -50 -23.5t-28 -54.5h-99q16 85 65 142t132 59q67 -3 118.5 -22.5t90.5 -22.5q39 1 56.5 21.5t25.5 52.5h102zM164 288q0 -76 46 -123.5t138 -48.5q141 -1 239 102t122 320
q-97 -31 -193 -38t-175 -16.5t-128 -51.5t-49 -144zM98 755q16 152 132 240.5t331 90.5q218 -4 303.5 -76t81.5 -165q-2 -39 -21.5 -131t-44 -202t-43 -200t-18.5 -127q0 -34 17.5 -51.5t48.5 -17.5q14 0 24 2t25 2l-21 -119q-24 -3 -51.5 -5.5t-58.5 -3.5q-79 1 -114 33
t-34 99q-43 -50 -126 -99t-197 -54q-186 3 -266 89t-79 236q4 170 98.5 241.5t229 89t252 22.5t162.5 40q21 23 29 55t8 64q-1 78 -61.5 105.5t-163.5 25.5q-136 1 -193.5 -43t-73.5 -141h-176z" />
    <glyph glyph-name="adieresis" unicode="&#xe4;" horiz-adv-x="1077" 
d="M164 288q0 -76 46 -123.5t138 -48.5q141 -1 239 102t122 320q-97 -31 -193 -38t-175 -16.5t-128 -51.5t-49 -144zM98 755q16 152 132 240.5t331 90.5q218 -4 303.5 -76t81.5 -165q-2 -39 -21.5 -131t-44 -202t-43 -200t-18.5 -127q0 -34 17.5 -51.5t48.5 -17.5q14 0 24 2
t25 2l-21 -119q-24 -3 -51.5 -5.5t-58.5 -3.5q-79 1 -114 33t-34 99q-43 -50 -126 -99t-197 -54q-186 3 -266 89t-79 236q4 170 98.5 241.5t229 89t252 22.5t162.5 40q21 23 29 55t8 64q-1 78 -61.5 105.5t-163.5 25.5q-136 1 -193.5 -43t-73.5 -141h-176zM422 1467h180
l-41 -204h-180zM889 1263h-180l41 204h180z" />
    <glyph glyph-name="aring" unicode="&#xe5;" horiz-adv-x="1077" 
d="M512 1361q1 -45 31.5 -79t83.5 -36q55 2 86 36t32 79q-1 45 -33 79t-85 36q-53 -2 -83.5 -36t-31.5 -79zM406 1365q1 84 60 148.5t161 68.5q103 -3 163.5 -65.5t61.5 -151.5q-1 -87 -60.5 -154t-164.5 -71q-108 4 -164.5 72.5t-56.5 152.5zM164 288q0 -76 46 -123.5
t138 -48.5q141 -1 239 102t122 320q-97 -31 -193 -38t-175 -16.5t-128 -51.5t-49 -144zM98 755q16 152 132 240.5t331 90.5q218 -4 303.5 -76t81.5 -165q-2 -39 -21.5 -131t-44 -202t-43 -200t-18.5 -127q0 -34 17.5 -51.5t48.5 -17.5q14 0 24 2t25 2l-21 -119
q-24 -3 -51.5 -5.5t-58.5 -3.5q-79 1 -114 33t-34 99q-43 -50 -126 -99t-197 -54q-186 3 -266 89t-79 236q4 170 98.5 241.5t229 89t252 22.5t162.5 40q21 23 29 55t8 64q-1 78 -61.5 105.5t-163.5 25.5q-136 1 -193.5 -43t-73.5 -141h-176z" />
    <glyph glyph-name="ae" unicode="&#xe6;" horiz-adv-x="1761" 
d="M868 493q-3 -185 52.5 -280.5t205.5 -96.5q117 2 190 65.5t101 163.5h180q-24 -144 -148.5 -255.5t-346.5 -118.5q-168 5 -260 78.5t-113 164.5q-55 -82 -157 -159t-261 -84q-155 3 -238.5 86t-85.5 227q4 182 96.5 256.5t226.5 89t255 20.5t176 51q18 20 25.5 48.5
t7.5 54.5q1 65 -54 101.5t-183 37.5q-145 0 -193.5 -47t-73.5 -137h-172q26 149 131.5 239.5t315.5 92.5q140 0 227 -34.5t137 -105.5q64 68 157.5 105.5t190.5 38.5q205 -8 300 -141t94 -298l-13 -163h-770zM1466 632q2 140 -49 224.5t-184 86.5q-140 -6 -230.5 -102
t-101.5 -209h565zM721 550q-82 -37 -176 -44t-180 -16.5t-141.5 -52.5t-55.5 -149q7 -94 58.5 -131.5t129.5 -36.5q134 0 239.5 108.5t125.5 321.5z" />
    <glyph glyph-name="ccedilla" unicode="&#xe7;" horiz-adv-x="1135" 
d="M37 427q1 254 151.5 455.5t434.5 212.5q208 -4 307 -114t98 -271h-180q1 92 -56 161t-182 72q-201 -14 -295.5 -186t-93.5 -334q1 -142 67 -218t187 -77q124 4 207 83.5t109 182.5h176q-30 -171 -165.5 -293.5t-309.5 -129.5l-25 -77q141 -1 188.5 -48t44.5 -120
q-1 -89 -61.5 -142t-171.5 -55q-75 2 -151 16.5t-136 32.5l33 90q50 -12 107 -25.5t110 -15.5q43 2 84 20t47 70q5 53 -29.5 72.5t-171.5 17.5l58 168q-150 -1 -262.5 105t-118.5 347z" />
    <glyph glyph-name="egrave" unicode="&#xe8;" horiz-adv-x="1130" 
d="M549 1549l209 -344h-107l-299 344h197zM594 1095q236 -7 332.5 -139.5t93.5 -299.5q0 -37 -4.5 -82.5t-7.5 -89.5h-795q0 -203 67.5 -287t202.5 -81q126 2 202.5 66.5t100.5 162.5h172q-27 -176 -168.5 -273.5t-322.5 -100.5q-245 7 -339.5 139.5t-90.5 320.5
q-2 254 132.5 453.5t424.5 210.5zM578 943q-137 -5 -223.5 -101t-108.5 -218h590q-10 229 -103.5 279t-154.5 40z" />
    <glyph glyph-name="eacute" unicode="&#xe9;" horiz-adv-x="1130" 
d="M705 1549h188l-299 -344h-119zM594 1095q236 -7 332.5 -139.5t93.5 -299.5q0 -37 -4.5 -82.5t-7.5 -89.5h-795q0 -203 67.5 -287t202.5 -81q126 2 202.5 66.5t100.5 162.5h172q-27 -176 -168.5 -273.5t-322.5 -100.5q-245 7 -339.5 139.5t-90.5 320.5q-2 254 132.5 453.5
t424.5 210.5zM578 943q-137 -5 -223.5 -101t-108.5 -218h590q-10 229 -103.5 279t-154.5 40z" />
    <glyph glyph-name="ecircumflex" unicode="&#xea;" horiz-adv-x="1130" 
d="M1020 656q0 -37 -4.5 -82.5t-7.5 -89.5h-795q0 -203 67.5 -287t202.5 -81q126 2 202.5 66.5t100.5 162.5h172q-27 -176 -168.5 -273.5t-322.5 -100.5q-245 7 -339.5 139.5t-90.5 320.5q-2 254 132.5 453.5t424.5 210.5q236 -7 332.5 -139.5t93.5 -299.5zM578 943
q-137 -5 -223.5 -101t-108.5 -218h590q-10 229 -103.5 279t-154.5 40zM315 1205l263 344h184l135 -344h-106l-136 217l-221 -217h-119z" />
    <glyph glyph-name="edieresis" unicode="&#xeb;" horiz-adv-x="1130" 
d="M414 1467h180l-41 -204h-180zM881 1263h-181l41 204h181zM594 1095q236 -7 332.5 -139.5t93.5 -299.5q0 -37 -4.5 -82.5t-7.5 -89.5h-795q0 -203 67.5 -287t202.5 -81q126 2 202.5 66.5t100.5 162.5h172q-27 -176 -168.5 -273.5t-322.5 -100.5q-245 7 -339.5 139.5
t-90.5 320.5q-2 254 132.5 453.5t424.5 210.5zM578 943q-137 -5 -223.5 -101t-108.5 -218h590q-10 229 -103.5 279t-154.5 40z" />
    <glyph glyph-name="igrave" unicode="&#xec;" horiz-adv-x="471" 
d="M393 1062l-225 -1062h-173l222 1062h176zM78 1549h196l209 -344h-106z" />
    <glyph glyph-name="iacute" unicode="&#xed;" horiz-adv-x="471" 
d="M393 1062l-225 -1062h-173l222 1062h176zM618 1549l-299 -344h-118l229 344h188z" />
    <glyph glyph-name="icircumflex" unicode="&#xee;" horiz-adv-x="471" 
d="M393 1062l-225 -1062h-173l222 1062h176zM41 1205l262 344h184l136 -344h-107l-135 217l-221 -217h-119z" />
    <glyph glyph-name="idieresis" unicode="&#xef;" horiz-adv-x="471" 
d="M393 1062l-225 -1062h-173l222 1062h176zM319 1467l-40 -204h-181l41 204h180zM647 1467l-41 -204h-180l41 204h180z" />
    <glyph glyph-name="eth" unicode="&#xf0;" horiz-adv-x="1171" 
d="M815 968q-36 81 -77 138t-99 107l-250 -114l-41 86l201 98q-51 32 -97 55t-112 52l53 106q101 -34 178.5 -71t141.5 -80l274 131l41 -86l-229 -111q120 -114 186.5 -266t67.5 -348q2 -266 -139 -474t-447 -220q-229 6 -332.5 127t-101.5 292q0 235 134.5 439t401.5 217
q79 0 137 -20.5t109 -57.5zM868 640q1 110 -62.5 184.5t-207.5 77.5q-204 -13 -293.5 -180t-87.5 -336q-1 -119 60.5 -191.5t201.5 -74.5q202 9 296 167.5t93 352.5z" />
    <glyph glyph-name="eth" unicode="&#x111;" horiz-adv-x="1171" 
d="M815 968q-36 81 -77 138t-99 107l-250 -114l-41 86l201 98q-51 32 -97 55t-112 52l53 106q101 -34 178.5 -71t141.5 -80l274 131l41 -86l-229 -111q120 -114 186.5 -266t67.5 -348q2 -266 -139 -474t-447 -220q-229 6 -332.5 127t-101.5 292q0 235 134.5 439t401.5 217
q79 0 137 -20.5t109 -57.5zM868 640q1 110 -62.5 184.5t-207.5 77.5q-204 -13 -293.5 -180t-87.5 -336q-1 -119 60.5 -191.5t201.5 -74.5q202 9 296 167.5t93 352.5z" />
    <glyph glyph-name="ntilde" unicode="&#xf1;" horiz-adv-x="1126" 
d="M406 1254q15 85 64 142t132 59q67 -3 118.5 -22.5t90.5 -22.5q39 1 56.5 21.5t25.5 52.5h102q-21 -96 -72 -146.5t-128 -50.5q-64 3 -105 22.5t-108 22.5q-31 -1 -50 -23.5t-28 -54.5h-98zM-9 0l222 1046h156l-33 -152q71 81 180.5 131.5t208.5 52.5q131 0 208 -55.5
t79 -169.5q-2 -43 -21.5 -148.5t-47.5 -238.5t-55.5 -258t-43.5 -208h-176q40 178 98.5 458.5t64.5 349.5q0 64 -42 95.5t-125 31.5q-75 -1 -140 -31t-114 -80q-29 -24 -50.5 -56t-46 -107.5t-60.5 -232.5t-93 -428h-169z" />
    <glyph glyph-name="ograve" unicode="&#xf2;" horiz-adv-x="1171" 
d="M614 1095q246 -8 346 -142.5t97 -304.5q-1 -271 -149 -468.5t-437 -208.5q-226 6 -332.5 131.5t-105.5 312.5q1 266 149.5 467.5t431.5 212.5zM594 943q-195 -13 -286.5 -186t-90.5 -346q-1 -131 61 -210t205 -81q207 12 299 185.5t90 363.5q1 121 -65 196.5t-213 77.5z
M565 1549l209 -344h-106l-299 344h196z" />
    <glyph glyph-name="oacute" unicode="&#xf3;" horiz-adv-x="1171" 
d="M614 1095q246 -8 346 -142.5t97 -304.5q-1 -271 -149 -468.5t-437 -208.5q-226 6 -332.5 131.5t-105.5 312.5q1 266 149.5 467.5t431.5 212.5zM594 943q-195 -13 -286.5 -186t-90.5 -346q-1 -131 61 -210t205 -81q207 12 299 185.5t90 363.5q1 121 -65 196.5t-213 77.5z
M909 1549l-299 -344h-118l229 344h188z" />
    <glyph glyph-name="ocircumflex" unicode="&#xf4;" horiz-adv-x="1171" 
d="M614 1095q246 -8 346 -142.5t97 -304.5q-1 -271 -149 -468.5t-437 -208.5q-226 6 -332.5 131.5t-105.5 312.5q1 266 149.5 467.5t431.5 212.5zM594 943q-195 -13 -286.5 -186t-90.5 -346q-1 -131 61 -210t205 -81q207 12 299 185.5t90 363.5q1 121 -65 196.5t-213 77.5z
M332 1205l262 344h184l135 -344h-106l-135 217l-221 -217h-119z" />
    <glyph glyph-name="otilde" unicode="&#xf5;" horiz-adv-x="1171" 
d="M614 1095q246 -8 346 -142.5t97 -304.5q-1 -271 -149 -468.5t-437 -208.5q-226 6 -332.5 131.5t-105.5 312.5q1 266 149.5 467.5t431.5 212.5zM594 943q-195 -13 -286.5 -186t-90.5 -346q-1 -131 61 -210t205 -81q207 12 299 185.5t90 363.5q1 121 -65 196.5t-213 77.5z
M958 1484q-21 -96 -72 -146.5t-128 -50.5q-64 3 -105 22.5t-108 22.5q-31 -1 -50 -23.5t-28 -54.5h-98q15 85 64 142t132 59q67 -3 118.5 -22.5t90.5 -22.5q39 1 56.5 21.5t25.5 52.5h102z" />
    <glyph glyph-name="odieresis" unicode="&#xf6;" horiz-adv-x="1171" 
d="M614 1095q246 -8 346 -142.5t97 -304.5q-1 -271 -149 -468.5t-437 -208.5q-226 6 -332.5 131.5t-105.5 312.5q1 266 149.5 467.5t431.5 212.5zM594 943q-195 -13 -286.5 -186t-90.5 -346q-1 -131 61 -210t205 -81q207 12 299 185.5t90 363.5q1 121 -65 196.5t-213 77.5z
M610 1467l-41 -204h-180l41 204h180zM897 1263h-180l41 204h180z" />
    <glyph glyph-name="divide" unicode="&#xf7;" horiz-adv-x="1700" 
d="M254 669h1188v-135h-1188v135zM725 968q2 50 37 85.5t86 37.5q50 -2 85.5 -37.5t37.5 -85.5q-2 -51 -37.5 -86t-85.5 -37q-51 2 -86 37t-37 86zM725 235q2 50 37 85t86 37q50 -2 85.5 -37t37.5 -85q-2 -51 -37.5 -86t-85.5 -37q-51 2 -86 37t-37 86z" />
    <glyph glyph-name="oslash" unicode="&#xf8;" horiz-adv-x="1171" 
d="M922 996l98 111l65 -57l-110 -115q40 -58 61 -126.5t21 -156.5q1 -263 -142 -466t-440 -215q-112 2 -185 29t-118 71l-123 -120l-58 54l120 131q-38 52 -58 119.5t-20 159.5q-1 241 141 453.5t444 226.5q97 0 167.5 -23.5t136.5 -75.5zM610 943q-210 -12 -302.5 -181
t-90.5 -347q0 -40 4.5 -76t16.5 -72l561 598q-29 43 -79 61t-110 17zM467 112q208 9 307 177t98 384q4 18 -2.5 50t-21.5 73l-561 -598q22 -41 71 -63.5t109 -22.5z" />
    <glyph glyph-name="ugrave" unicode="&#xf9;" horiz-adv-x="1126" 
d="M676 0l37 161q-74 -79 -180 -127t-214 -50q-184 7 -238 79t-48 139q0 39 19.5 145.5t48 241.5t57 263t47.5 210h176q-16 -80 -44 -203t-55.5 -253t-46 -227t-18.5 -124q-1 -59 38.5 -94.5t133.5 -36.5q92 3 156 40.5t98 74.5q31 30 53.5 64t45 108.5t56 228.5t87.5 422
h176l-225 -1062h-160zM586 1549l209 -344h-107l-299 344h197z" />
    <glyph glyph-name="uacute" unicode="&#xfa;" horiz-adv-x="1126" 
d="M741 1549h189l-299 -344h-119zM676 0l37 161q-74 -79 -180 -127t-214 -50q-184 7 -238 79t-48 139q0 39 19.5 145.5t48 241.5t57 263t47.5 210h176q-16 -80 -44 -203t-55.5 -253t-46 -227t-18.5 -124q-1 -59 38.5 -94.5t133.5 -36.5q92 3 156 40.5t98 74.5q31 30 53.5 64
t45 108.5t56 228.5t87.5 422h176l-225 -1062h-160z" />
    <glyph glyph-name="ucircumflex" unicode="&#xfb;" horiz-adv-x="1126" 
d="M676 0l37 161q-74 -79 -180 -127t-214 -50q-184 7 -238 79t-48 139q0 39 19.5 145.5t48 241.5t57 263t47.5 210h176q-16 -80 -44 -203t-55.5 -253t-46 -227t-18.5 -124q-1 -59 38.5 -94.5t133.5 -36.5q92 3 156 40.5t98 74.5q31 30 53.5 64t45 108.5t56 228.5t87.5 422
h176l-225 -1062h-160zM614 1549h185l135 -344h-107l-135 217l-221 -217h-119z" />
    <glyph glyph-name="udieresis" unicode="&#xfc;" horiz-adv-x="1126" 
d="M676 0l37 161q-74 -79 -180 -127t-214 -50q-184 7 -238 79t-48 139q0 39 19.5 145.5t48 241.5t57 263t47.5 210h176q-16 -80 -44 -203t-55.5 -253t-46 -227t-18.5 -124q-1 -59 38.5 -94.5t133.5 -36.5q92 3 156 40.5t98 74.5q31 30 53.5 64t45 108.5t56 228.5t87.5 422
h176l-225 -1062h-160zM451 1467h180l-41 -204h-180zM918 1263h-181l41 204h180z" />
    <glyph glyph-name="yacute" unicode="&#xfd;" horiz-adv-x="942" 
d="M438 1205l230 344h188l-299 -344h-119zM233 1062l119 -905l443 905h196q-289 -539 -446.5 -847.5t-238.5 -449t-139 -176t-147 -31.5q-20 1 -48 6t-55 10l41 156q19 -6 34 -9t33 -4q46 -4 86 38t110 184l-176 1123h188z" />
    <glyph glyph-name="thorn" unicode="&#xfe;" horiz-adv-x="1204" 
d="M532 -29q-120 3 -204 57t-127 133l-119 -587h-165l378 1885h168l-119 -561q56 87 144 137t196 51q197 -3 297 -121t100 -317q-4 -273 -153 -470t-396 -207zM512 116q183 9 283.5 171.5t101.5 377.5q-5 165 -82 223.5t-160 54.5q-207 -14 -300.5 -188.5t-92.5 -347.5
q1 -140 65 -215t185 -76z" />
    <glyph glyph-name="ydieresis" unicode="&#xff;" horiz-adv-x="942" 
d="M45 1062h188l119 -905l443 905h196q-289 -539 -446.5 -847.5t-238.5 -449t-139 -176t-147 -31.5q-20 1 -48 6t-55 10l41 156q19 -6 34 -9t33 -4q46 -4 86 38t110 184zM377 1467h180l-41 -204h-180zM885 1467l-41 -204h-180l41 204h180z" />
    <glyph glyph-name="dotlessi" unicode="&#x131;" horiz-adv-x="471" 
d="M217 1062h172l-221 -1062h-173z" />
    <glyph glyph-name="OE" unicode="&#x152;" horiz-adv-x="2212" 
d="M852 1500q120 0 220 -44.5t177 -139.5l33 143h930l-41 -172h-741l-91 -450h713l-33 -168h-721l-102 -496h791l-37 -173h-979l24 120q-74 -77 -172.5 -116.5t-216.5 -40.5q-293 13 -410.5 206t-113.5 418q8 382 225 642t545 271zM279 587q-2 -185 88.5 -322.5
t291.5 -144.5q135 2 214.5 47t154.5 108l193 898q-54 72 -134 117t-210 46q-293 -15 -445 -245.5t-153 -503.5z" />
    <glyph glyph-name="oe" unicode="&#x153;" horiz-adv-x="1917" 
d="M1008 484l-4 -90q-1 -101 61.5 -187t200.5 -91q124 4 203 73.5t96 155.5h176q-25 -163 -159 -266.5t-337 -107.5q-118 1 -215 52t-145 150q-72 -91 -174 -145.5t-260 -56.5q-226 9 -323 148t-95 316q-2 235 135 440.5t430 219.5q156 0 241 -47.5t140 -145.5
q85 98 182.5 145.5t218.5 47.5q207 -5 314 -116.5t108 -272.5l-12 -222h-782zM606 947q-204 -11 -297 -169t-92 -335q-3 -122 52.5 -219.5t209.5 -103.5q209 11 294.5 173.5t82.5 350.5q3 110 -49.5 203.5t-200.5 99.5zM1036 624h582v73q0 96 -61.5 169t-184.5 77
q-133 -4 -220 -95t-116 -224z" />
    <glyph glyph-name="Scaron" unicode="&#x160;" horiz-adv-x="1217" 
d="M369 1082q4 -102 103 -159.5t231.5 -109.5t233.5 -137t107 -245q-2 -214 -141.5 -339t-390.5 -129q-265 4 -385.5 133t-118.5 356h180q-1 -160 84.5 -242t268.5 -82q140 3 222.5 81t84.5 198q-6 114 -105.5 171.5t-230.5 105.5t-229.5 134t-102.5 260q2 175 130 296
t354 126q275 -4 389 -130t110 -324h-184q2 131 -67 211.5t-236 82.5q-156 -3 -231.5 -75t-75.5 -183zM1147 1955l-262 -344h-185l-135 344h107l135 -217l221 217h119z" />
    <glyph glyph-name="scaron" unicode="&#x161;" horiz-adv-x="1004" 
d="M958 1549l-262 -344h-184l-135 344h106l135 -217l222 217h118zM147 366q5 -165 90 -216.5t197 -46.5q111 2 164 49t53 119q-6 82 -86 127t-184.5 86t-183 110t-82.5 198q2 137 107.5 219t289.5 84q212 -3 300 -104.5t85 -264.5h-164q2 105 -52.5 164.5t-184.5 60.5
q-105 -1 -157 -43t-52 -108q4 -70 84 -112t185.5 -84t185 -111.5t85.5 -192.5q-2 -150 -112 -241.5t-305 -95.5q-205 -1 -315 93t-112 310h164z" />
    <glyph glyph-name="Ydieresis" unicode="&#x178;" horiz-adv-x="1049" 
d="M1196 1459l-614 -889l-115 -570h-193l127 603l-327 856h196l254 -680l455 680h107h110zM692 1873l-41 -205h-180l41 205h180zM1020 1873l-41 -205h-180l41 205h180z" />
    <glyph glyph-name="florin" unicode="&#x192;" horiz-adv-x="1118" 
d="M135 -422q-50 2 -94.5 14t-74.5 27l42 160q31 -15 61 -25.5t58 -11.5q55 -2 88 26.5t59.5 130.5t66.5 316t110 581h-213v143h241q69 379 168 477t205 84q39 0 88 -13t88 -32l-45 -143q-28 12 -55.5 20t-55.5 8q-68 10 -112.5 -59.5t-91.5 -341.5h229v-143h-254
q-61 -340 -104 -574t-91.5 -376.5t-120 -205t-192.5 -62.5z" />
    <glyph glyph-name="circumflex" unicode="&#x2c6;" 
d="M578 1549h184l135 -344h-106l-136 217l-221 -217h-119z" />
    <glyph glyph-name="caron" unicode="&#x2c7;" 
d="M221 1439h58l233 -213l229 213h58l-230 -344h-118z" />
    <glyph glyph-name="breve" unicode="&#x2d8;" 
d="M262 1402q29 -92 94.5 -117t147.5 -22q81 -3 146.5 22t94.5 117h46q-12 -110 -82.5 -186.5t-204.5 -79.5q-135 3 -205 79.5t-82 186.5h45z" />
    <glyph glyph-name="dotaccent" unicode="&#x2d9;" 
d="M512 1140q-44 1 -74.5 31.5t-31.5 74.5q1 45 31.5 75.5t74.5 31.5q44 -1 74.5 -31.5t31.5 -75.5q-1 -44 -31.5 -74.5t-74.5 -31.5z" />
    <glyph glyph-name="tilde" unicode="&#x2dc;" 
d="M942 1484q-22 -96 -73 -146.5t-128 -50.5q-63 3 -104.5 22.5t-108.5 22.5q-31 -1 -49.5 -23.5t-27.5 -54.5h-99q16 85 65 142t132 59q67 -3 118.5 -22.5t90.5 -22.5q39 1 56 21.5t26 52.5h102z" />
    <glyph glyph-name="pi" unicode="&#x3c0;" horiz-adv-x="1200" 
d="M-30 775q25 142 84 214.5t245 72.5h885l-33 -156h-180q-31 -131 -56.5 -243.5t-45 -200.5t-29 -148.5t-9.5 -87.5q1 -60 32 -81.5t83 -20.5l90 8l-28 -132q-31 -8 -60 -11.5t-51 -4.5q-69 -4 -150 32t-88 173q-2 41 6.5 98.5t26 140.5t44 201t63.5 277h-336l-189 -906
h-180l197 906q-96 1 -123.5 -30t-44.5 -101h-153z" />
    <glyph glyph-name="endash" unicode="&#x2013;" 
d="M971 480h-1021l28 107h1013z" />
    <glyph glyph-name="emdash" unicode="&#x2014;" horiz-adv-x="2040" 
d="M-22 587h2033l-20 -107h-2041z" />
    <glyph glyph-name="quoteleft" unicode="&#x2018;" horiz-adv-x="516" 
d="M434 1033h-205l58 254q19 77 90 141.5t151 71.5l-20 -94q-43 -9 -75.5 -42.5t-51.5 -125.5h94z" />
    <glyph glyph-name="quoteright" unicode="&#x2019;" horiz-adv-x="512" 
d="M217 1082q41 12 77 44.5t58 127.5h-98l45 205h201l-41 -196q-25 -110 -90 -181.5t-164 -85.5z" />
    <glyph glyph-name="quotesinglbase" unicode="&#x201a;" horiz-adv-x="508" 
d="M119 95q0 45 29.5 77.5t93.5 33.5q60 1 108 -42t51 -138q1 -102 -65 -191.5t-209 -170.5l-25 29q89 59 154 126.5t68 143.5q0 25 -10 32t-31 6q-13 0 -27.5 -0.5t-30.5 -0.5q-47 0 -76 22t-30 73z" />
    <glyph glyph-name="quotedblleft" unicode="&#x201c;" horiz-adv-x="844" 
d="M373 1238h98l-45 -205h-201l41 197q25 109 90 180.5t164 85.5l-12 -86q-41 -12 -77 -44.5t-58 -127.5zM799 1238l-41 -205h-205l57 254q19 77 90.5 141.5t151.5 71.5l-21 -94q-43 -9 -75.5 -42.5t-50.5 -125.5h94z" />
    <glyph glyph-name="quotedblright" unicode="&#x201d;" horiz-adv-x="844" 
d="M676 1254h-98l45 205h200l-41 -196q-25 -110 -90 -181.5t-164 -85.5l13 86q41 12 77 44.5t58 127.5zM250 1254l41 205h205l-58 -254q-19 -77 -90 -141.5t-151 -71.5l20 94q43 10 75.5 43t51.5 125h-94z" />
    <glyph glyph-name="quotedblbase" unicode="&#x201e;" horiz-adv-x="844" 
d="M426 0h-98l45 202h200l-41 -197q-25 -106 -89.5 -177t-163.5 -86l12 86q41 13 77 45.5t58 126.5zM0 0l41 202h205l-58 -251q-19 -76 -89.5 -140.5t-148.5 -72.5l20 94q42 10 74 43.5t50 124.5h-94z" />
    <glyph glyph-name="dagger" unicode="&#x2020;" 
d="M483 1050l74 409h156l-66 -409h332l-21 -144h-340l-196 -1119h-164l197 1119h-336l24 144h340z" />
    <glyph glyph-name="daggerdbl" unicode="&#x2021;" 
d="M479 1054l74 409h156l-66 -409h332l-17 -148h-344l-98 -573h336l-25 -144h-340l-65 -402h-168l74 402h-337l25 144h340l95 573h-336l24 148h340z" />
    <glyph glyph-name="bullet" unicode="&#x2022;" horiz-adv-x="1204" 
d="M598 1046q134 -5 213.5 -92.5t81.5 -202.5q-2 -115 -81.5 -201t-213.5 -90q-131 4 -210 90t-81 201q2 115 81 202.5t210 92.5z" />
    <glyph glyph-name="ellipsis" unicode="&#x2026;" horiz-adv-x="2044" 
d="M356 214l-45 -214h-217l45 214h217zM1036 214l-45 -214h-217l45 214h217zM1716 214l-45 -214h-217l45 214h217z" />
    <glyph glyph-name="perthousand" unicode="&#x2030;" horiz-adv-x="2576" 
d="M1356 1422l-877 -1463h-123l881 1463h119zM422 1381q132 -1 237 -93t111 -259q-6 -167 -111 -259t-237 -93t-240.5 83t-115.5 265q7 181 115.5 268.5t240.5 87.5zM422 1238q-81 0 -145 -52.5t-68 -156.5q4 -104 68.5 -156.5t148.5 -52.5q82 2 140 62t61 151
q-3 91 -64 147t-141 58zM1298 701q132 -1 237.5 -93t111.5 -259q-6 -167 -111.5 -257.5t-237.5 -91.5q-132 0 -240.5 82.5t-115.5 262.5q7 181 115.5 268.5t240.5 87.5zM1298 558q-80 0 -144.5 -52.5t-68.5 -156.5q4 -104 69 -156.5t149 -52.5q82 2 139.5 62t60.5 151
q-3 91 -64 147t-141 58zM2159 558q-81 0 -145 -52.5t-68 -156.5q4 -104 68.5 -156.5t148.5 -52.5q82 2 139.5 62t60.5 151q-3 91 -63.5 147t-140.5 58zM2159 701q132 -1 237 -93t111 -259q-6 -167 -111 -257.5t-237 -91.5q-133 0 -241.5 82.5t-115.5 262.5
q7 181 115.5 268.5t241.5 87.5z" />
    <glyph glyph-name="guilsinglleft" unicode="&#x2039;" horiz-adv-x="500" 
d="M303 189l-270 275l33 160l385 241l-37 -172l-258 -164l180 -180z" />
    <glyph glyph-name="guilsinglright" unicode="&#x203a;" horiz-adv-x="500" 
d="M123 865l270 -274l-33 -160l-382 -242l34 172l258 164l-180 181z" />
    <glyph glyph-name="trademark" unicode="&#x2122;" horiz-adv-x="1700" 
d="M905 1353v-443h-94v533h147l148 -389l147 389h144v-533h-94v439l-168 -439h-50zM242 1443h446v-78h-168v-455h-106v455h-172v78z" />
    <glyph glyph-name="Omega" unicode="&#x2126;" horiz-adv-x="1556" 
d="M774 1332q-175 2 -322.5 -122t-156.5 -402q2 -219 102.5 -380.5t274.5 -254.5v-173h-594v173h323q-129 96 -216.5 254t-90.5 365q12 369 219 539.5t461 168.5q255 2 461.5 -168.5t218.5 -539.5q-3 -207 -90.5 -365t-216.5 -254h323v-173h-593v173q174 93 274 254.5
t102 380.5q-9 278 -156.5 402t-322.5 122z" />
    <glyph glyph-name="partialdiff" unicode="&#x2202;" 
d="M414 1078q-34 0 -54 15.5t-20 46.5q2 60 58 102.5t147 44.5q150 -1 247.5 -138t100.5 -402q-3 -317 -126 -539t-329 -233q-137 4 -219 102t-84 260q3 194 103.5 310.5t257.5 119.5q88 1 144.5 -42t92.5 -146q16 59 22.5 138.5t6.5 164.5q0 169 -33 254.5t-98 85.5
q-53 -9 -101 -72t-116 -72zM524 710q-101 -1 -171.5 -117.5t-73.5 -341.5q3 -136 55 -188t117 -50q123 6 186 137.5t63 321.5q-1 109 -48 173t-128 65z" />
    <glyph glyph-name="Delta" unicode="&#x2206;" horiz-adv-x="1425" 
d="M733 1431l651 -1431h-1335l651 1431h33zM647 1099l-450 -1008h905z" />
    <glyph glyph-name="product" unicode="&#x220f;" horiz-adv-x="1700" 
d="M66 1549h1564v-82h-180v-1868h180v-82h-536v82h168v1868h-828v-1868h168v-82h-536v82h180v1868h-180v82z" />
    <glyph glyph-name="Sigma" unicode="&#x2211;" horiz-adv-x="1208" 
d="M94 1459h1045v-176h-779l517 -528l-553 -578h831v-177h-1094v153l578 602l-545 549v155z" />
    <glyph glyph-name="minus" unicode="&#x2212;" horiz-adv-x="1700" 
d="M1442 669v-135h-1188v135h1188z" />
    <glyph glyph-name="fraction" unicode="&#x2215;" horiz-adv-x="340" 
d="M676 1435l-923 -1460h-90l923 1460h90z" />
    <glyph glyph-name="smallbullet" unicode="&#x2219;" horiz-adv-x="561" 
d="M279 820q53 -1 89.5 -37t37.5 -90q-1 -53 -37.5 -89.5t-89.5 -37.5q-54 1 -90 37.5t-37 89.5q1 54 37 90t90 37z" />
    <glyph glyph-name="radical" unicode="&#x221a;" horiz-adv-x="1298" 
d="M340 964l254 -713l516 1397h184v-90h-114l-590 -1599h-62l-319 874l-123 -41l-25 77z" />
    <glyph glyph-name="infinity" unicode="&#x221e;" horiz-adv-x="1700" 
d="M520 988q138 -9 214 -103.5t106 -162.5q38 95 119.5 179.5t195.5 90.5q133 -2 226.5 -106t97.5 -287q0 -147 -75.5 -261t-219.5 -120q-134 8 -211 97.5t-113 164.5q-42 -95 -118 -178t-201 -88q-125 3 -220 110.5t-100 282.5q-1 137 72.5 255t226.5 126zM295 595
q1 -103 55 -169.5t150 -68.5q102 3 169.5 84.5t121.5 210.5q-35 79 -100.5 129t-158.5 52q-103 -1 -169 -65t-68 -173zM1200 845q-122 -9 -190.5 -110.5t-100.5 -184.5q38 -68 97 -122.5t170 -57.5q100 1 163.5 64t65.5 177q-1 107 -55 170t-150 64z" />
    <glyph glyph-name="integral" unicode="&#x222b;" 
d="M717 1435q-81 -14 -103.5 -269.5t-19.5 -582.5q2 -425 -86 -684.5t-295 -267.5q-81 2 -124.5 40t-43.5 100q0 47 26 71t72 23q80 -7 88.5 -64.5t63.5 -66.5q83 11 104.5 253.5t18.5 599.5q-2 411 86 676t295 274q80 -1 123.5 -38.5t44.5 -100.5q0 -46 -26 -68t-73 -22
q-79 8 -87.5 63.5t-63.5 63.5z" />
    <glyph glyph-name="approxequal" unicode="&#x2248;" horiz-adv-x="1700" 
d="M565 923q84 0 162 -19.5t147.5 -46.5t134 -47t126.5 -23q89 1 187.5 41.5t197.5 114.5v-151q-68 -49 -166 -93t-215 -47q-76 2 -147.5 22.5t-140.5 47.5t-137.5 46t-140.5 19q-108 -2 -209 -46.5t-188 -108.5v151q95 65 190 102t199 38zM176 419q95 65 190 101.5
t199 37.5q84 0 162 -19.5t147.5 -46t134 -47t126.5 -22.5q89 0 187.5 40.5t197.5 115.5v-152q-68 -49 -166 -92.5t-215 -46.5q-76 2 -147.5 22.5t-140.5 47t-137.5 46t-140.5 19.5q-108 -2 -209 -47t-188 -109v152z" />
    <glyph glyph-name="notequal" unicode="&#x2260;" horiz-adv-x="1700" 
d="M823 472h619v-131h-705l-245 -315l-107 82l188 233h-319v131h401l209 262h-610v131h700l246 316l98 -78l-180 -238h324v-131h-414z" />
    <glyph glyph-name="lessequal" unicode="&#x2264;" horiz-adv-x="1704" 
d="M1438 1193v-143l-938 -308l938 -307v-143l-1176 393v115zM262 153h1176v-136h-1176v136z" />
    <glyph glyph-name="greaterequal" unicode="&#x2265;" horiz-adv-x="1700" 
d="M1438 153v-136h-1176v136h1176zM262 1193l1176 -393v-115l-1176 -393v143l938 307l-938 308v143z" />
    <glyph glyph-name="lozenge" unicode="&#x25ca;" horiz-adv-x="2040" 
d="M434 673l578 737l590 -733l-590 -734zM1016 1230l-438 -553l438 -553l446 553z" />
  </font>
</defs>
</svg>
